<?xml version="1.0" standalone="no"?>
<!DOCTYPE svg PUBLIC "-//W3C//DTD SVG 1.1//EN" "http://www.w3.org/Graphics/SVG/1.1/DTD/svg11.dtd" >
<svg xmlns="http://www.w3.org/2000/svg">
<metadata>Generated by IcoMoon</metadata>
<defs>
<font id="regular" horiz-adv-x="1024">
<font-face units-per-em="1024" ascent="960" descent="-64" />
<missing-glyph horiz-adv-x="1024" />
<glyph unicode="&#x20;" horiz-adv-x="512" d="" />
<glyph unicode="&#xe900;" glyph-name="address-book" d="M544 384h-128c-88.4 0-160-71.6-160-160 0-17.6 14.4-32 32-32h384c17.672 0 32 14.328 32 32 0 88.4-71.6 160-160 160zM480 448c70.7 0 128 57.3 128 128s-57.3 128-128 128c-70.68 0-128-57.3-128-128s57.4-128 128-128zM992 320h-32v-192h32c17.672 0 32 14.328 32 32v128c0 17.6-14.4 32-32 32zM992 832h-32v-192h32c17.6 0 32 14.4 32 32v128c0 17.68-14.4 32-32 32zM992 576h-32v-192h32c17.6 0 32 14.4 32 32v128c0 17.6-14.4 32-32 32zM768 960h-576c-70.7 0-128-57.3-128-128v-768c0-70.7 57.3-128 128-128h576c70.7 0 128 57.3 128 128v768c0 70.7-57.4 128-128 128zM800 64c0-17.672-14.328-32-32-32h-576c-17.672 0-32 14.328-32 32v768c0 17.676 14.328 32 32 32h576c17.672 0 32-14.324 32-32v-768z" />
<glyph unicode="&#xe901;" glyph-name="address-card" horiz-adv-x="1152" d="M416 448c70.7 0 128 57.3 128 128s-57.3 128-128 128-128-57.3-128-128c0-70.6 57.4-128 128-128zM928 496h-192c-26.5 0-48-21.5-48-48s21.5-48 48-48h192c26.5 0 48 21.5 48 48s-21.4 48-48 48zM480 384h-128c-88.4 0-160-71.6-160-160 0-17.6 14.4-32 32-32h384c17.672 0 32 14.328 32 32 0 88.4-71.6 160-160 160zM928 656h-192c-26.5 0-48-21.5-48-48s21.5-48 48-48h192c26.5 0 48 21.5 48 48s-21.4 48-48 48zM1024 896h-896c-70.7 0-128-57.3-128-128v-640c0-70.7 57.3-128 128-128h896c70.7 0 128 57.3 128 128v640c0 70.7-57.4 128-128 128zM1056 128c0-17.644-14.356-32-32-32h-896c-17.644 0-32 14.356-32 32v640c0 17.644 14.356 32 32 32h896c17.644 0 32-14.356 32-32v-640z" />
<glyph unicode="&#xe902;" glyph-name="barometer" d="M262.485 509.44c0 33.792 6.485 66.219 19.797 97.28s31.061 57.344 53.589 79.531 49.152 39.936 79.872 53.248c30.72 13.312 63.147 19.797 96.939 19.797s66.219-6.485 97.28-19.797c30.72-13.312 57.344-31.061 79.531-53.248s39.936-48.811 53.248-79.531 19.797-63.147 19.797-97.28c0-55.296-16.384-104.448-49.152-148.139-32.768-43.349-75.093-73.045-126.635-89.088v-112.299h-144.725v110.933c-52.565 15.36-95.915 45.056-129.365 89.088s-50.176 93.867-50.176 149.504zM317.44 509.44c0-52.907 19.115-98.304 57.685-136.192 37.888-38.229 83.627-57.344 137.216-57.344 35.157 0 67.925 8.533 97.621 25.941 30.037 17.408 53.589 40.96 71.339 70.656 17.408 29.696 26.283 62.123 26.283 97.28 0 26.283-5.12 51.2-15.36 75.435s-24.235 44.715-41.643 62.123c-17.408 17.408-38.229 31.403-62.464 41.643s-49.152 15.36-75.435 15.36c-26.283 0-51.2-5.12-75.435-15.36s-44.715-24.235-62.123-41.643c-17.408-17.408-31.403-38.229-41.643-62.123-10.923-24.576-16.043-49.493-16.043-75.776zM337.237 497.152v24.576h74.069v-24.576h-74.069zM374.443 617.984l17.749 17.749 51.883-51.883-17.749-18.091-51.883 52.224zM460.8 449.707c0 14.336 5.12 26.624 15.019 37.205s22.187 16.043 36.181 16.384l93.184 153.259 22.528-11.947-68.949-164.864c6.144-8.533 8.875-18.432 8.875-30.037 0-15.019-5.12-27.648-15.701-37.888s-23.211-15.36-38.229-15.36c-14.677 0-27.307 5.12-37.547 15.36s-15.36 22.869-15.36 37.888zM505.515 609.109v73.728h23.552v-74.069h-23.552zM605.867 497.493v25.259h74.069v-25.259h-74.069z" />
<glyph unicode="&#xe903;" glyph-name="bell" horiz-adv-x="896" d="M512 896v-35.76c145-23.020 256-148.64 256-300.24v-66.8c0-90.8 31-179 87.6-250l29.8-37.2c11.6-14.4 13.8-34.2 5.8-50.8s-24.8-27.2-43.2-27.2h-800c-18.46 0-35.27 10.6-43.262 27.2-7.994 16.6-5.746 36.4 5.782 50.8l29.82 37.2c56.74 71 87.66 159.2 87.66 250v66.8c0 151.6 111 277.22 256 300.24v35.76c0 35.34 28.6 64 64 64s64-28.66 64-64v0zM432 768c-114.8 0-208-93.2-208-208v-66.8c0-95.8-27.76-189.2-79.38-269.2h606.78c-51.6 80-79.4 173.4-79.4 269.2v66.8c0 114.8-93.2 208-208 208h-32zM576 64c0-32.2-13.4-66.6-37.4-90.6s-58.4-37.4-90.6-37.4c-34 0-66.6 13.4-90.6 37.4s-37.4 58.4-37.4 90.6h256z" />
<glyph unicode="&#xe904;" glyph-name="bell-slash" horiz-adv-x="1280" d="M367.2 722.8c45.8 72.040 121 123.52 208.8 137.44v35.76c0 35.34 28.6 63.999 64 63.999s64-28.659 64-63.999v-35.76c145-23.020 256-148.64 256-300.24v-66.8c0-90.8 31-179 87.6-250l29.8-37.2c8.8-13 13.4-30.4 7.8-46l176.4-138.2c20.8-16.4 24.6-46.6 8.2-67.4s-46.6-24.6-67.4-8.2l-1184.008 928.020c-20.864 16.36-24.522 46.52-8.168 67.388 16.356 20.864 46.516 24.522 67.396 8.168l289.58-226.976zM443.4 663.2l458-357.4c-24.6 57.8-37.4 122-37.4 187.4v66.8c0 114.8-93.2 208-208 208h-32c-77.4 0-144.8-42.2-180.6-104.8v0zM320 493.2v22.6l93.4-73.6c-8-77.6-34.4-152.6-76.8-218.2h353.8l122-96h-572.4c-18.4 0-35.2 10.6-43.26 27.2-8 16.6-5.74 36.4 5.86 50.8l29.8 37.2c56.6 71 87.6 159.2 87.6 250v0zM768 64c0-32.2-13.4-66.6-37.4-90.6s-58.4-37.4-90.6-37.4c-34 0-66.6 13.4-90.6 37.4s-37.4 58.4-37.4 90.6h256z" />
<glyph unicode="&#xe905;" glyph-name="bookmark" horiz-adv-x="768" d="M672 960h-576c-53.020 0-96-42.98-96-96v-863.8c0-49.4 53.58-80.16 96.24-55.28l287.76 167.88 287.8-167.86c42.6-23.14 96.2 5.86 96.2 55.26v863.8c0 53.020-43 96-96 96zM672 56l-288 168-288-168v796c0 6.74 5.26 12 10.2 12h552c8.6 0 13.8-5.26 13.8-12v-796z" />
<glyph unicode="&#xe906;" glyph-name="building" horiz-adv-x="768" d="M176 752c0 17.68 14.32 32 32 32h96c17.6 0 32-14.32 32-32v-96c0-17.6-14.4-32-32-32h-96c-17.68 0-32 14.4-32 32v96zM560 784c17.6 0 32-14.32 32-32v-96c0-17.6-14.4-32-32-32h-96c-17.6 0-32 14.4-32 32v96c0 17.68 14.4 32 32 32h96zM176 496c0 17.6 14.32 32 32 32h96c17.6 0 32-14.4 32-32v-96c0-17.6-14.4-32-32-32h-96c-17.68 0-32 14.4-32 32v96zM560 528c17.6 0 32-14.4 32-32v-96c0-17.6-14.4-32-32-32h-96c-17.6 0-32 14.4-32 32v96c0 17.6 14.4 32 32 32h96zM0 832c0 70.7 57.3 128 128 128h512c70.6 0 128-57.3 128-128v-768c0-70.6-57.4-128-128-128h-512c-70.7 0-128 57.4-128 128v768zM96 832v-768c0-17.6 14.32-32 32-32h160v128c0 53 43 96 96 96s96-43 96-96v-128h160c17.6 0 32 14.4 32 32v768c0 17.68-14.4 32-32 32h-512c-17.68 0-32-14.32-32-32z" />
<glyph unicode="&#xe907;" glyph-name="calendar" horiz-adv-x="896" d="M304 832h288v80c0 26.5 21.4 48 48 48s48-21.5 48-48v-80h80c70.6 0 128-57.3 128-128v-640c0-70.6-57.4-128-128-128h-640c-70.7 0-128 57.4-128 128v640c0 70.7 57.3 128 128 128h80v80c0 26.5 21.4 48 48 48s48-21.5 48-48v-80zM96 64c0-17.6 14.32-32 32-32h640c17.6 0 32 14.4 32 32v512h-704v-512z" />
<glyph unicode="&#xe908;" glyph-name="calendar-check" horiz-adv-x="896" d="M432.2 143.8c-17-20.4-47.4-20.4-66.2 0l-128 128c-18.6 17-18.6 47.4 0 66.2 18.8 18.6 49.2 18.6 66.2 0l95.8-94.2 190 190.2c18.8 18.6 49.2 18.6 66.2 0 20.4-18.8 20.4-49.2 0-66.2l-224-224zM256 960c26.6 0 48-21.5 48-48v-80h288v80c0 26.5 21.4 48 48 48s48-21.5 48-48v-80h80c70.6 0 128-57.3 128-128v-640c0-70.6-57.4-128-128-128h-640c-70.7 0-128 57.4-128 128v640c0 70.7 57.3 128 128 128h80v80c0 26.5 21.4 48 48 48zM800 576h-704v-512c0-17.6 14.32-32 32-32h640c17.6 0 32 14.4 32 32v512z" />
<glyph unicode="&#xe909;" glyph-name="calendar-days" horiz-adv-x="896" d="M304 832h288v80c0 26.5 21.4 48 48 48s48-21.5 48-48v-80h80c70.6 0 128-57.3 128-128v-640c0-70.6-57.4-128-128-128h-640c-70.7 0-128 57.4-128 128v640c0 70.7 57.3 128 128 128h80v80c0 26.5 21.4 48 48 48s48-21.5 48-48v-80zM96 464h160v112h-160v-112zM96 368v-128h160v128h-160zM352 368v-128h192v128h-192zM640 368v-128h160v128h-160zM800 576h-160v-112h160v112zM800 144h-160v-112h128c17.6 0 32 14.4 32 32v80zM544 144h-192v-112h192v112zM256 144h-160v-80c0-17.6 14.32-32 32-32h128v112zM544 576h-192v-112h192v112z" />
<glyph unicode="&#xe90a;" glyph-name="calendar-minus" horiz-adv-x="896" d="M304 256c-26.6 0-48 21.4-48 48s21.4 48 48 48h288c26.6 0 48-21.4 48-48s-21.4-48-48-48h-288zM256 960c26.6 0 48-21.5 48-48v-80h288v80c0 26.5 21.4 48 48 48s48-21.5 48-48v-80h80c70.6 0 128-57.3 128-128v-640c0-70.6-57.4-128-128-128h-640c-70.7 0-128 57.4-128 128v640c0 70.7 57.3 128 128 128h80v80c0 26.5 21.4 48 48 48zM800 576h-704v-512c0-17.6 14.32-32 32-32h640c17.6 0 32 14.4 32 32v512z" />
<glyph unicode="&#xe90b;" glyph-name="calendar-plus" horiz-adv-x="896" d="M448 496c26.6 0 48-21.4 48-48v-96h96c26.6 0 48-21.4 48-48s-21.4-48-48-48h-96v-96c0-26.6-21.4-48-48-48s-48 21.4-48 48v96h-96c-26.6 0-48 21.4-48 48s21.4 48 48 48h96v96c0 26.6 21.4 48 48 48zM304 832h288v80c0 26.5 21.4 48 48 48s48-21.5 48-48v-80h80c70.6 0 128-57.3 128-128v-640c0-70.6-57.4-128-128-128h-640c-70.7 0-128 57.4-128 128v640c0 70.7 57.3 128 128 128h80v80c0 26.5 21.4 48 48 48s48-21.5 48-48v-80zM96 64c0-17.6 14.32-32 32-32h640c17.6 0 32 14.4 32 32v512h-704v-512z" />
<glyph unicode="&#xe90c;" glyph-name="calendar-xmark" horiz-adv-x="896" d="M515.8 304l92.4-94c20.4-18.8 20.4-49.2 0-66.2-17-20.4-47.4-20.4-66.2 0l-94 92.4-95.8-92.4c-17-20.4-47.4-20.4-66.2 0-18.6 17-18.6 47.4 0 66.2l94.2 94-94.2 95.8c-18.6 17-18.6 47.4 0 66.2 18.8 18.6 49.2 18.6 66.2 0l95.8-94.2 94 94.2c18.8 18.6 49.2 18.6 66.2 0 20.4-18.8 20.4-49.2 0-66.2l-92.4-95.8zM256 960c26.6 0 48-21.5 48-48v-80h288v80c0 26.5 21.4 48 48 48s48-21.5 48-48v-80h80c70.6 0 128-57.3 128-128v-640c0-70.6-57.4-128-128-128h-640c-70.7 0-128 57.4-128 128v640c0 70.7 57.3 128 128 128h80v80c0 26.5 21.4 48 48 48zM800 576h-704v-512c0-17.6 14.32-32 32-32h640c17.6 0 32 14.4 32 32v512z" />
<glyph unicode="&#xe90d;" glyph-name="celsius" d="M332.8 585.216c0 17.067 6.144 31.744 18.091 43.691 12.288 12.288 26.624 18.091 43.691 18.091 16.725 0 31.403-6.144 43.349-18.091 11.947-12.288 18.091-26.624 18.091-43.691s-6.144-31.744-18.091-43.691c-11.947-12.288-26.624-18.091-43.349-18.091-17.067 0-31.744 6.144-43.691 18.091s-18.091 26.624-18.091 43.691zM362.837 585.216c0-8.875 3.072-16.384 9.216-22.869 6.485-6.485 13.995-9.557 22.869-9.557s16.384 3.072 22.869 9.557 9.557 13.995 9.557 22.869c0 8.875-3.072 16.384-9.557 22.869s-13.995 9.557-22.869 9.557c-8.875 0-16.384-3.072-22.869-9.557-6.144-6.144-9.216-13.995-9.216-22.869zM495.616 434.347c0-26.283 7.168-49.493 21.845-69.973 7.509-10.581 18.091-19.115 31.744-25.6 13.312-6.144 28.672-9.557 45.739-9.557 49.835 0 81.237 19.115 93.867 57.003 1.365 4.779 0.683 9.557-2.048 13.995s-6.485 6.827-11.264 7.851c-4.779 1.365-9.557 0.683-13.653-2.389-4.096-2.731-6.827-6.485-7.851-11.605 0-0.341 0-0.683-0.341-1.707l-0.683-2.389c-3.755-6.485-8.875-11.605-15.36-15.36-10.581-6.485-24.576-9.557-41.984-9.557-10.581 0-20.139 1.707-28.331 5.461-13.653 5.803-23.211 16.043-29.013 30.379-3.755 9.216-5.803 20.48-5.803 33.109v109.909c0 5.12 0.341 10.24 1.024 15.36 1.365 12.971 6.485 24.917 15.36 35.499 9.899 11.947 25.6 17.749 47.104 17.749 17.749 0 31.744-3.072 41.984-9.216 6.827-4.096 11.947-9.216 15.36-15.36 0.341-0.683 0.341-1.707 0.683-2.731s0.341-1.707 0.341-2.048c1.365-4.779 4.096-8.192 7.851-10.24 4.096-2.389 8.533-2.731 13.653-1.707 4.779 1.024 8.533 3.755 11.264 7.851s3.413 8.533 2.048 13.653v0.341l-2.731 7.851c-1.707 3.755-4.779 8.875-9.557 14.677-4.437 6.144-9.899 10.923-15.36 15.019-7.168 5.12-16.384 9.216-27.989 12.971-11.605 3.413-24.235 5.12-37.888 5.12-17.408 0-32.427-3.072-46.080-9.216-13.312-6.144-23.893-14.336-31.061-24.917-14.677-20.139-22.187-43.691-22.187-70.656v-109.568z" />
<glyph unicode="&#xe90e;" glyph-name="chart-bar" d="M48 896c26.5 0 48-21.5 48-48v-704c0-26.6 21.5-48 48-48h832c26.6 0 48-21.4 48-48s-21.4-48-48-48h-832c-79.52 0-144 64.4-144 144v704c0 26.5 21.5 48 48 48zM256 688c0 26.6 21.4 48 48 48h416c26.6 0 48-21.4 48-48s-21.4-48-48-48h-416c-26.6 0-48 21.4-48 48zM592 544c26.6 0 48-21.4 48-48s-21.4-48-48-48h-288c-26.6 0-48 21.4-48 48s21.4 48 48 48h288zM848 352c26.6 0 48-21.4 48-48s-21.4-48-48-48h-544c-26.6 0-48 21.4-48 48s21.4 48 48 48h544z" />
<glyph unicode="&#xe90f;" glyph-name="chess-bishop" horiz-adv-x="640" d="M592 32h-545.8c-24.7 0-46.2-21.4-46.2-46.2s21.5-49.8 46.2-49.8h544c28.4 0 49.8 21.4 49.8 48s-21.4 48-48 48zM0 352c0-103.26 60.24-170.5 128-192v-64h96v134.26l-67 21.26c-29.5 9.48-61 40.68-61 100.48 0 168.2 186.4 413 225.2 413 39.26 0 120.020-134.36 140.56-171.6l-132.26-132.26c-6.25-6.25-9.376-14.438-9.376-22.62s3.076-16.32 9.476-22.52l22.4-22.4c6.25-6.25 14.438-9.376 22.62-9.376s16.376 3.124 22.62 9.376l108.76 108.4c22.8-55.6 38-109 38-150 0-59.76-31.5-91-61-100.5l-67-21.3v-134.2h96v64c67.76 21.5 128 88.76 128 192 0 146.76-135.5 394.4-241.2 483 28 6.76 49.2 31 49.2 61 0 35.24-28.76 64-64 64h-128c-35.2 0-64-28.76-64-64 0-30 21.24-54.24 49.24-61-105.74-88.6-241.24-336.2-241.24-483z" />
<glyph unicode="&#xe910;" glyph-name="chess-king" horiz-adv-x="896" d="M783.8 32h-671.9c-26.5 0-46.2-21.5-46.2-46.2s19.7-49.8 46.2-49.8h670.2c26.5 0 46.2 21.5 46.2 46.2s-17.9 49.8-44.5 49.8zM896 528c0 23.64-7.566 47.020-22.16 66.34-20.6 28.78-54 45.76-89.46 45.76l-288.58-0.1v112h62.2c26.4 0 48.12 21.6 48.12 48s-19.92 48-46.32 48h-62.2v65.8c-1.8 24.6-23.2 46.2-51.4 46.2s-46.4-21.6-46.4-46.2v-65.8h-64c-26.4 0-47.94-21.6-47.94-48s21.54-48 47.94-48h62.2v-112h-286.1c-62.46 0-111.9-50.6-111.9-111.8 0-11.4 1.779-23 5.408-34.2l131.492-398h101l-141.24 427.2c-0.48 1.6-0.7 3-0.7 4.6 0 7.6 5.9 16.2 15.94 16.2h671.8c12.152 0 16.23-10.988 16.23-16.226 0-1.268-0.156-2.538-0.481-3.774l-141.849-428h101.24l130.2 398.4c5.36 11 6.96 22.2 6.96 33.6z" />
<glyph unicode="&#xe911;" glyph-name="chess-knight" horiz-adv-x="768" d="M88 318.8l29-13c-34.020-40.48-52.88-91.82-52.88-144.7 0-0.5 0.12-65.1 0.12-65.1h96v64c0 49.5 28 95 72.26 117.26l76.26 46.74c26.5 13.25 43.5 40.5 43.5 70.26v117.5l-30.74-18c-10.32-5.36-17.72-14.56-20.52-25.56l-15-50.2c-4.5-15.25-16-27.76-30.76-33.5l-21.040-8.5c-6.2-2.6-12.8-3.8-19.4-3.8-7.252 0-14.526 1.503-21.32 4.508l-66.48 29.492c-18.76 8.6-31 27.4-31 48v224.8c0 10.25 4.25 20.24 11.5 27.76l14.75 14.75-23.25 46.49c-2 3.76-3 8-3 12.24 0 11 8.76 19.76 19.76 19.76h210c173.5 0 312.2-140.76 312.2-314.2v-389.8h96.12l-0.125 389.8c1.845 226.2-181.955 410.2-408.155 410.2h-210.040c-64 0-115.76-51.76-115.76-115.76 0-17 3.5-33.76 10.25-49.24-6.75-16.6-10.25-34.2-10.25-52v-224.8c0-58.6 34.5-111.8 88-135.4zM160.24 632c0-22 17.75-40 40-40 22 0 40 18 40 40s-18 40-40 40c-22.24 0-40-18-40-40zM720 32h-673.8c-24.7 0-46.2-21.4-46.2-46.2s21.5-49.8 46.2-49.8h673.8c26.6 0 48 21.4 48 48s-21.4 48-48 48z" />
<glyph unicode="&#xe912;" glyph-name="chess-pawn" horiz-adv-x="640" d="M592 33.8h-545.8c-26.5 0-46.2-21.5-46.2-48s21.5-48 46.2-48h544c26.5 0 46.2 21.5 46.2 46.2s-17.8 49.8-44.4 49.8zM110.2 385.8h49.8v-59c0-80.5-7-162.5-46.76-229h107c29.96 74 35.76 153 35.76 227.2v59h128v-59c0-74.26 5.75-155 35.76-229h107c-39.76 66.6-46.76 148.6-46.76 229v60.8h48c26.6 0 48 19.6 48 48 0 26.5-21.5 48-46.2 48h-47.8c47.5 43.76 76.2 106.24 76.2 174.2 0 18.786-2.212 38.1-6.902 57.72-6.698 35.48-61.498 182.28-233.098 182.28-130.7 0-238.2-107.5-238.2-238.2 0-69.76 30.24-132.24 78-176h-47.8c-24.7 0-46.2-23.2-46.2-48 0-28.4 21.5-48 46.2-48zM320 801.8c79.5 0 144-64.5 144-144s-64.4-144-144-144-144 62.8-144 144 64.4 144 144 144z" />
<glyph unicode="&#xe913;" glyph-name="chess-queen" d="M512 736c61.76 0 112 50.24 112 112s-50.2 112-112 112-113.8-50.24-113.8-112 52-112 113.8-112zM1022.2 565.2c0 10.356-5.018 20.4-14.192 26.52l-55.208 31.88c-5 3.5-10.994 5.24-16.994 5.24-11.002-0.25-21.26-5.74-27.5-14.49-18.002-24-46.32-38.26-76.32-38.26-6.25 0-12.178 0.506-18.178 1.756-46.26 8.5-77.76 52.5-77.76 99.5-1.848 14.654-13.848 26.654-26.848 26.654h-77.5c-12.002 0-23.26-8-25.76-19.75-9.54-44.45-48.54-76.25-95.74-76.25-45.5 0-84.5 31.76-94 76.24-0.8 11.76-11.8 19.76-24 19.76h-77.5c-16.5 0-28.5-12-28.5-26.8 0-36.98-27.32-101.24-95.9-101.24-30.26 0-58.6 14.236-76.6 38.48-4.5 8.76-14.38 14.16-25.4 14.36-6 0-11.862-1.79-16.864-5.29l-57.26-32c-9.158-5.91-14.176-16.11-14.176-26.31 0-4.876 1.117-9.802 3.44-14.37l216.36-454.83h106.26l-186.36 391.2c17-4.8 34.52-7.2 52.26-7.2 4.864 0 113.66-3.006 169.52 105 34.72-46 91.72-73 150.32-73 58.76 0 114.020 26.76 150.52 72.5 9.88-19.7 58.88-104.5 169.68-104.5 17.502 0 35 2.25 52 7l-186-391h106.26l216.2 454.8c2.34 4.6 1.74 9.6 1.74 14.4zM848 32h-672.040c-26.52 0-48-21.5-48-46.2s21.48-49.8 48-49.8h672c26.52 0 48 21.5 48 46.2s-21.36 49.8-47.96 49.8z" />
<glyph unicode="&#xe914;" glyph-name="chess-rook" horiz-adv-x="768" d="M720 32h-673.8c-24.7 0-46.2-21.4-46.2-46.2s21.5-49.8 46.2-49.8h673.8c26.6 0 48 21.4 48 48s-21.4 48-48 48zM690.2 896h-616c-40.2 0-74.2-34-74.2-76v-278.8c0-18.8 8-36.2 22-48.4l74-64.4c0-17.77 0.101-35.28 0.101-52.92 0-78.64-2.002-159.92-23.86-279.6h98c19.659 115.52 21.979 197.52 21.979 293.12 0 29.6-0.22 60.8-0.22 94.6l-96 83.4v233h128v-96h96v96h128v-96h96v96h128v-233l-96-83.4c0-33.54-0.225-64.5-0.225-94.2 0-95.58 2.328-178.3 21.98-293.4h98c-21.84 119.66-23.86 201.2-23.86 279.8-0.095 17.6 0.105 35 0.105 52.6l74 64.26c14 12.34 22 29.74 22 48.54v278.8c0 42-34 76-77.8 76zM384 512c-35.2 0-64-28.8-64-64v-128h128v128c0 35.2-28.8 64-64 64z" />
<glyph unicode="&#xe915;" glyph-name="circle" d="M1024 448c0-282.8-229.2-512-512-512s-512 229.2-512 512c0 282.8 229.2 512 512 512s512-229.2 512-512zM512 864c-229.8 0-416-186.2-416-416s186.2-416 416-416c229.8 0 416 186.2 416 416s-186.2 416-416 416z" />
<glyph unicode="&#xe916;" glyph-name="circle-check" d="M487.6 280.4c-21.8-21.8-57.4-21.8-79.2 0l-128 128c-21.8 21.8-21.8 57.4 0 79.2s57.4 21.8 79.2 0l88.4-88.4 216.4 216.4c21.8 21.8 57.4 21.8 79.2 0s21.8-57.4 0-79.2l-256-256zM1024 448c0-282.8-229.2-512-512-512s-512 229.2-512 512c0 282.8 229.2 512 512 512s512-229.2 512-512zM512 864c-229.8 0-416-186.2-416-416s186.2-416 416-416c229.8 0 416 186.2 416 416s-186.2 416-416 416z" />
<glyph unicode="&#xe917;" glyph-name="circle-dot" d="M320 448c0 107.8 84.2 192 192 192 106 0 192-84.2 192-192 0-106-86-192-192-192-107.8 0-192 86-192 192zM1024 448c0-282.8-229.2-512-512-512s-512 229.2-512 512c0 282.8 229.2 512 512 512s512-229.2 512-512zM512 864c-229.8 0-416-186.2-416-416s186.2-416 416-416c229.8 0 416 186.2 416 416s-186.2 416-416 416z" />
<glyph unicode="&#xe918;" glyph-name="circle-down" d="M688 480h-112l-1.8 176c0 26.5-21.5 48-48 48h-32c-24.8 0-48-21.6-48-48l1.8-176h-112c-19.062 0-36.32-11.312-44-28.76-7.6-17.44-4.2-37.84 8.8-51.84l177.5-192c9.1-9.8 21.9-15.4 35.3-15.4 15.562 0.625 26.5 5.75 35.5 15.688l174.5 192c12.812 14.062 16.062 34.38 8.376 51.76s-24.976 28.552-43.976 28.552zM512 960c-282.8 0-512-229.2-512-512s229.2-512 512-512 512 229.2 512 512-229.2 512-512 512zM512 32c-229.4 0-416 186.62-416 416s186.6 416 416 416 416-186.62 416-416-186.6-416-416-416z" />
<glyph unicode="&#xe919;" glyph-name="circle-left" d="M720 512h-176v112c0 19.062-11.312 36.32-28.76 44-17.44 7.6-37.84 4.2-51.84-8.8l-192-177.5c-9.8-9.1-15.4-21.9-15.4-35.3 0.625-15.562 5.75-26.5 15.688-35.5l192-174.5c14.062-12.812 34.38-16.062 51.76-8.376s28.56 24.88 28.56 43.88l-0.004 112 175.996 0.096c26.6 0 48 21.4 48 48v32c0 26.4-21.4 48-48 48zM512 960c-282.8 0-512-229.2-512-512s229.2-512 512-512 512 229.2 512 512-229.2 512-512 512zM512 32c-229.4 0-416 186.62-416 416s186.6 416 416 416 416-186.62 416-416-186.6-416-416-416z" />
<glyph unicode="&#xe91a;" glyph-name="circle-pause" d="M400 640c-26.4 0-48-21.6-48-48v-288c0-26.6 21.6-48 48-48s48 21.4 48 48v288c0 26.4-21.4 48-48 48zM624 640c-26.4 0-48-21.6-48-48v-288c0-26.5 21.5-48 48-48s48 21.5 48 48v288c0 26.4-21.4 48-48 48zM512 960c-282.8 0-512-229.2-512-512s229.2-512 512-512 512 229.2 512 512-229.2 512-512 512zM512 32c-229.4 0-416 186.62-416 416s186.6 416 416 416 416-186.62 416-416-186.6-416-416-416z" />
<glyph unicode="&#xe91b;" glyph-name="circle-play" d="M376.6 665.8c15 8.6 33.6 10 48.4-0.8l288-176c14.2-8.8 23-24.2 23-41s-8.8-32.2-23-41l-288-176c-14.8-9-33.4-9.4-48.4-0.8-15.2 8.4-24.6 24.4-24.6 41.8v353.8c0 15.6 9.4 31.6 24.6 40v0zM1024 448c0-282.8-229.2-512-512-512s-512 229.2-512 512c0 282.8 229.2 512 512 512s512-229.2 512-512zM512 864c-229.8 0-416-186.2-416-416s186.2-416 416-416c229.8 0 416 186.2 416 416s-186.2 416-416 416z" />
<glyph unicode="&#xe91c;" glyph-name="circle-question" d="M512 960c-282.8 0-512-229.2-512-512s229.2-512 512-512 512 229.2 512 512-229.2 512-512 512zM512 32c-229.4 0-416 186.62-416 416s186.6 416 416 416 416-186.62 416-416-186.6-416-416-416zM512 288c-36 0-64-28-64-64s26.2-64 64-64c34.2 0 64 28 64 64s-29.8 64-64 64zM578.2 704h-102.2c-78 0-140-62-140-140 0-26 22-48 48-48s48 22 48 48c0 24 18.2 44 42.2 44h102.2c25.8 0 47.6-20 47.6-44 0-16-8-28.2-22-36.2l-114-69.8c-16-10-24-26-24-42v-32c0-26 22-48 48-48s48 22 48 48v4l90.2 56c42 26 68 72 68 120 1.8 78-60.2 140-140 140z" />
<glyph unicode="&#xe91d;" glyph-name="circle-right" d="M560.4 659.6c-14.2 12.8-36.2 16-51.8 8.2s-30.4-24.8-30.4-42l0.004-112-174.204-1.8c-26.4 0-48-21.6-48-48v-32c0-26.6 21.6-48 48-48l176 1.8v-112c0-19.062 11.312-36.32 28.76-44 17.5-7.624 37.82-4.188 51.82 8.75l192 177.5c9.82 7.35 15.42 20.15 15.42 33.55-0.625 15.562-5.75 26.5-15.688 35.5l-191.912 174.5zM512 960c-282.8 0-512-229.2-512-512s229.2-512 512-512 512 229.2 512 512-229.2 512-512 512zM512 32c-229.4 0-416 186.62-416 416s186.6 416 416 416 416-186.62 416-416-186.6-416-416-416z" />
<glyph unicode="&#xe91e;" glyph-name="circle-stop" d="M656 640h-288c-26.4 0-48-21.6-48-48v-288c0-26.4 21.6-48 48-48h288c26.4 0 48 21.6 48 48v288c0 26.4-21.6 48-48 48zM512 960c-282.8 0-512-229.2-512-512s229.2-512 512-512 512 229.2 512 512-229.2 512-512 512zM512 32c-229.4 0-416 186.62-416 416s186.6 416 416 416 416-186.62 416-416-186.6-416-416-416z" />
<glyph unicode="&#xe91f;" glyph-name="circle-up" d="M545.8 688.6c-9.2 9.8-22 15.4-35.4 15.4-15.4-0.6-28.2-5.8-35.4-15.6l-174.5-192c-12.9-14.2-16.1-34.4-8.3-51.8 7.6-17.4 24.8-28.6 42-28.6h112l1.8-176c0-26.5 21.5-48 48-48h32c26.5 0 46.2 21.5 46.2 48v176h112c19.062 0 36.32 11.312 44 28.76 7.622 17.5 4.184 37.82-8.754 51.82l-175.646 192.020zM512 960c-282.8 0-512-229.2-512-512s229.2-512 512-512 512 229.2 512 512-229.2 512-512 512zM512 32c-229.4 0-416 186.62-416 416s186.6 416 416 416 416-186.62 416-416-186.6-416-416-416z" />
<glyph unicode="&#xe920;" glyph-name="circle-user" d="M512 736c-97.2 0-176-78.8-176-176s78.8-176 176-176 176 78.8 176 176c0 97.2-78.8 176-176 176zM512 480c-44.12 0-80 35.9-80 80 0 44.2 35.8 80 80 80s80-35.88 80-80c0-44.2-35.8-80-80-80zM512 960c-282.8 0-512-229.2-512-512s229.2-512 512-512 512 229.2 512 512-229.2 512-512 512zM512 32c-93.46 0-179.52 31.36-249 83.58 34.6 66.42 101.8 108.42 177.4 108.42h143.38c75.5 0 142.62-42.020 177.36-108.42-69.54-52.18-155.74-83.58-249.14-83.58zM832.4 183c-54 84.4-146 137-248.8 137h-143.2c-102.72 0-194.7-52.5-248.8-136.96-59.68 71.96-95.6 164.36-95.6 264.96 0 229.4 186.62 416 416 416s416-186.62 416-416c0-100.6-36-193-95.6-265z" />
<glyph unicode="&#xe921;" glyph-name="circle-xmark" d="M350 610c18.8 18.6 49.2 18.6 66.2 0l94-94.2 95.8 94.2c18.8 18.6 49.2 18.6 66.2 0 20.4-18.8 20.4-49.2 0-66.2l-92.4-94 92.4-95.8c20.4-18.8 20.4-49.2 0-66.2-17-20.4-47.4-20.4-66.2 0l-95.8 92.4-94-92.4c-17-20.4-47.4-20.4-66.2 0-18.6 17-18.6 47.4 0 66.2l94.2 95.8-94.2 94c-18.6 17-18.6 47.4 0 66.2v0zM1024 448c0-282.8-229.2-512-512-512s-512 229.2-512 512c0 282.8 229.2 512 512 512s512-229.2 512-512zM512 864c-229.8 0-416-186.2-416-416s186.2-416 416-416c229.8 0 416 186.2 416 416s-186.2 416-416 416z" />
<glyph unicode="&#xe922;" glyph-name="clipboard" horiz-adv-x="768" d="M640 832h-99.22c-16.58 73.040-79.38 128-156.78 128s-142-54.96-156.8-128h-99.2c-70.7 0-128-57.32-128-128v-640c0-70.68 57.3-128 128-128h512c70.7 0 128 57.32 128 128v640c0 70.68-57.4 128-128 128zM384 864c26.46 0 48-21.54 48-48s-21.6-48-48-48-48 21.54-48 48 21.6 48 48 48zM672 64c0-17.64-14.356-32-32-32h-512c-17.644 0-32 14.36-32 32v640c0 17.64 14.356 32 32 32h36.52c-2.66-10.2-4.52-20.8-4.52-32v-32c0-17.6 14.32-32 32-32h384c17.672 0 32 14.328 32 32v32c0 11.118-1.863 21.72-4.528 32h36.528c17.644 0 32-14.36 32-32v-640z" />
<glyph unicode="&#xe923;" glyph-name="clock" d="M464 720c0 26.6 21.4 48 48 48s48-21.4 48-48v-246.4l170.6-113.6c22-14.8 28-44.6 11.6-66.6-13-22-42.8-28-64.8-11.6l-192 128c-13.4 7.2-21.4 22.2-21.4 40v270.2zM512 960c282.8 0 512-229.2 512-512s-229.2-512-512-512c-282.8 0-512 229.2-512 512s229.2 512 512 512zM96 448c0-229.8 186.2-416 416-416s416 186.2 416 416c0 229.8-186.2 416-416 416s-416-186.2-416-416z" />
<glyph unicode="&#xe924;" glyph-name="clone" d="M128 32h448c17.6 0 32 14.4 32 32v128h96v-128c0-70.6-57.4-128-128-128h-448c-70.7 0-128 57.4-128 128v448c0 70.6 57.3 128 128 128h128v-96h-128c-17.68 0-32-14.4-32-32v-448c0-17.6 14.32-32 32-32zM320 832c0 70.7 57.4 128 128 128h448c70.6 0 128-57.3 128-128v-448c0-70.6-57.4-128-128-128h-448c-70.6 0-128 57.4-128 128v448zM448 352h448c17.6 0 32 14.4 32 32v448c0 17.68-14.4 32-32 32h-448c-17.6 0-32-14.32-32-32v-448c0-17.6 14.4-32 32-32z" />
<glyph unicode="&#xe925;" glyph-name="closed-captioning" horiz-adv-x="1152" d="M1024 896h-896c-70.7 0-128-57.3-128-128v-640c0-70.7 57.3-128 128-128h896c70.7 0 128 57.3 128 128v640c0 70.7-57.4 128-128 128zM1056 128c0-17.644-14.356-32-32-32h-896c-17.644 0-32 14.356-32 32v640c0 17.644 14.356 32 32 32h896c17.644 0 32-14.356 32-32v-640zM473 515.8c18.75-18.75 49.12-18.75 67.88 0 18.75 18.75 18.75 49.12 0 67.88-74.88 74.88-196.62 74.88-271.4 0-36.48-36.080-56.48-84.48-56.48-135.68s18.2-99.5 56.24-135.76c37.44-37.44 86.56-56.16 135.74-56.16s98.32 18.718 135.74 56.16c18.75 18.75 18.75 49.12 0 67.88-18.75 18.75-49.12 18.75-67.88 0-37.38-37.44-98.38-37.44-135.74 0-18.1 18.080-28.1 42.28-28.1 67.88s10 49.76 28.12 67.88c37.48 37.52 98.48 37.52 135.88-0.080zM857 515.8c18.75-18.75 49.12-18.75 67.88 0 18.75 18.75 18.75 49.12 0 67.88-74.88 74.88-196.62 74.88-271.4 0-36.48-36.080-56.48-84.48-56.48-135.68s18.2-99.5 56.24-135.76c37.44-37.44 86.56-56.16 135.74-56.16s98.32 18.718 135.74 56.16c18.75 18.75 18.75 49.12 0 67.88-18.75 18.75-49.12 18.75-67.88 0-37.38-37.44-98.38-37.44-135.74 0-18.1 18.080-28.1 42.28-28.1 67.88s10 49.76 28.12 67.88c37.48 37.52 98.48 37.52 135.88-0.080z" />
<glyph unicode="&#xe926;" glyph-name="cloud" d="M157.355 383.829c0 39.253 12.288 74.069 36.864 104.789s55.637 50.517 93.525 59.051c10.581 46.763 34.816 84.992 72.021 115.029s80.213 45.056 128.341 45.056c47.104 0 89.088-14.677 125.952-43.691s60.757-66.56 71.68-112.299h11.264c30.72 0 59.051-7.509 84.992-22.187s46.763-35.157 61.781-61.099c15.019-25.941 22.869-53.931 22.869-84.651 0-30.037-7.168-58.027-21.504-83.627s-34.133-46.080-59.051-61.44c-24.917-15.36-52.565-23.552-82.261-24.576h-382.635c-45.739 2.048-84.309 19.456-116.053 52.224-31.744 32.427-47.787 71.68-47.787 117.419zM215.723 383.829c0-29.696 10.24-55.296 30.72-77.141s45.397-33.451 74.752-35.157h381.952c29.355 1.365 54.272 13.312 74.752 35.157 20.821 21.845 31.061 47.787 31.061 77.141 0 30.037-11.264 55.637-33.451 77.483s-48.469 32.768-79.189 32.768h-54.613c-3.755 0-5.803 2.048-5.803 6.144l-2.389 19.456c-3.755 36.864-19.797 67.925-47.787 92.843s-60.416 37.547-97.621 37.547c-37.205 0-69.973-12.629-97.28-37.547-27.648-24.917-43.349-55.979-46.763-92.843l-2.731-19.456c0-4.096-2.389-6.144-6.827-6.144h-18.091c-28.672-3.413-52.565-15.701-71.68-36.523s-29.013-45.397-29.013-73.728z" />
<glyph unicode="&#xe927;" glyph-name="cloud-down" d="M157.355 383.829c0-45.739 16.043-84.651 47.787-117.419s70.656-50.176 116.053-52.224c3.755 0 5.803 2.048 5.803 5.803v45.739c0 4.096-2.048 6.144-5.803 6.144-29.355 1.365-54.272 12.971-74.752 34.816s-30.72 47.445-30.72 77.141c0 28.331 9.557 52.907 29.013 74.069s43.349 33.109 71.68 36.523l18.091 1.365c4.437 0 6.827 2.048 6.827 5.803l2.731 18.773c3.413 36.864 18.773 67.925 46.421 92.501 27.648 24.917 60.075 37.205 97.621 37.205 37.205 0 69.632-12.288 97.621-37.205s43.691-55.637 47.787-92.501l2.389-19.797c0-3.755 2.048-5.803 5.803-5.803h55.296c30.379 0 56.661-10.923 78.848-33.109 22.187-21.845 33.451-47.787 33.451-77.824 0-29.696-10.24-55.296-31.061-77.141s-45.739-33.451-74.752-34.816c-4.437 0-6.485-2.048-6.485-6.144v-45.739c0-3.755 2.048-5.803 6.485-5.803 30.037 0.683 57.344 8.875 82.261 24.576 24.917 15.36 44.715 35.84 59.051 61.44s21.504 53.589 21.504 83.627c0 30.72-7.509 59.051-22.869 84.651-15.019 25.941-35.84 46.080-61.781 61.099s-54.272 22.187-84.992 22.187h-11.264c-11.264 45.739-35.157 82.944-71.68 112.299s-78.848 43.691-125.952 43.691c-48.128 0-91.136-15.019-128.341-44.715s-61.44-68.267-72.021-115.029c-37.547-8.875-68.608-28.672-93.184-59.392s-36.864-65.536-36.864-104.789zM395.264 331.947c0-8.192 2.731-15.019 8.192-20.48l88.405-89.088c4.096-5.461 10.923-7.851 19.456-7.851 9.557 0 16.384 2.731 20.821 7.851l88.747 89.088c5.461 5.803 8.192 12.971 8.192 20.48 0 7.851-2.731 14.677-8.192 19.797s-12.288 7.851-20.48 7.851c-8.192 0-15.019-2.731-21.163-7.851l-38.229-37.888v135.851c0 8.192-2.731 14.677-8.533 20.139s-12.629 7.851-20.821 7.851-14.677-2.731-20.139-7.851c-5.461-5.461-7.851-11.947-7.851-20.139v-135.851l-37.547 37.888c-6.144 5.461-12.971 7.851-21.504 7.851s-15.36-2.731-20.821-7.851c-5.803-5.12-8.533-11.947-8.533-19.797z" />
<glyph unicode="&#xe928;" glyph-name="cloud-refresh" d="M158.037 382.805c0-22.528 4.096-43.691 12.971-64.171 8.533-20.48 20.139-37.888 34.816-52.907 14.677-14.677 32.085-26.965 52.224-35.84 20.139-9.216 41.301-14.336 63.829-15.36 3.755 0 5.803 2.048 5.803 5.803v45.397c0 4.096-2.048 6.485-5.803 6.485-29.696 2.048-54.613 13.995-74.752 35.157s-30.379 46.421-30.379 75.435c0 28.672 9.557 53.589 29.013 74.752s43.008 33.109 71.68 35.499l17.749 2.389c4.437 0 6.827 2.048 6.827 5.803l2.389 17.749c2.389 24.235 10.24 46.421 23.552 66.56 13.312 19.797 30.72 35.499 51.883 46.763s44.032 16.725 68.608 16.725c37.205 0 69.973-12.288 97.621-36.864 27.989-24.576 43.691-55.296 47.445-92.16l2.048-19.456c0-4.096 2.048-6.144 6.485-6.144h54.955c30.72 0 57.003-10.923 79.189-33.109 21.845-21.845 33.109-48.128 33.109-78.507 0-29.013-10.24-54.272-30.379-75.435s-45.056-33.109-74.752-35.157c-4.437 0-6.827-2.048-6.827-6.485v-45.397c0-3.755 2.389-5.803 6.827-5.803 45.739 2.048 84.309 19.456 115.712 51.541s47.104 71.339 47.104 116.736c0 30.379-7.509 58.709-22.869 84.651s-35.84 46.421-61.781 61.44c-25.941 15.019-54.272 22.869-84.651 22.869h-10.923c-11.264 45.397-35.499 82.603-72.021 111.957-37.888 29.355-79.872 43.691-126.635 43.691-48.128 0-90.795-15.019-128-45.397s-61.44-68.608-72.021-115.371c-37.888-8.875-68.949-28.672-93.184-59.392-24.576-30.379-36.864-65.195-36.864-104.448zM370.688 339.456c0-25.259 6.485-48.811 19.115-70.656s30.037-38.912 51.541-51.541c21.504-12.971 45.056-19.115 70.315-19.115 39.253 0 72.704 13.995 100.693 41.643 27.989 27.989 41.984 61.099 41.984 99.669 0 7.851-2.731 14.677-8.533 20.48s-12.629 8.533-20.821 8.533c-8.192 0-15.019-2.731-20.821-8.533s-8.875-12.629-8.875-20.48c0-22.869-8.192-42.325-24.576-59.051-16.384-16.384-35.84-24.576-59.051-24.576-22.528 0-41.984 8.192-58.368 24.576s-24.576 36.181-24.576 59.051c0 20.48 6.144 38.571 18.091 54.613 12.288 16.043 26.965 24.917 44.715 26.283l-13.995-13.312c-5.12-5.12-7.851-11.605-7.851-19.456 0-8.533 2.389-16.043 7.851-22.528 4.779-5.12 10.581-7.851 18.091-7.851 7.509-0.341 15.36 2.389 23.893 7.851l62.123 63.829c5.803 5.803 8.533 12.288 8.533 19.797 0 8.533-2.731 15.36-8.533 20.821l-62.123 62.464c-6.485 6.144-13.312 8.875-21.163 8.875s-14.677-2.731-20.139-8.533c-5.461-5.803-8.192-12.629-8.192-20.821s2.389-14.677 7.851-19.797l11.947-12.288c-34.133-5.803-62.464-21.504-84.992-47.787-22.869-25.941-34.133-56.661-34.133-92.16z" />
<glyph unicode="&#xe929;" glyph-name="cloud-up" d="M158.379 383.829c0-45.397 15.701-84.651 47.445-117.077 31.744-32.768 70.315-50.176 116.053-52.224 3.755 0 5.803 2.048 5.803 5.803v45.397c0 4.096-2.048 6.485-5.803 6.485-29.355 1.365-53.931 12.971-74.411 34.816s-30.72 47.445-30.72 76.8c0 27.989 9.557 52.565 28.672 73.728 19.115 20.821 43.008 33.109 71.68 36.523h18.091c4.437 0 6.827 2.048 6.827 6.144l2.048 19.456c3.755 36.864 19.456 67.925 47.104 92.843s60.416 37.547 97.621 37.547c36.864 0 69.291-12.629 97.28-37.547s43.691-55.979 47.445-92.843l2.731-19.456c0-4.096 2.048-6.144 6.144-6.144h54.955c30.379 0 56.661-10.923 78.848-32.768s33.451-47.787 33.451-77.141c0-29.355-10.24-54.955-30.72-76.8s-45.397-33.451-74.411-34.816c-4.437 0-6.827-2.048-6.827-6.485v-45.397c0-3.755 2.389-5.803 6.827-5.803 29.696 0.683 57.003 8.875 81.92 24.235s44.715 35.84 59.051 61.44c14.336 25.6 21.504 53.589 21.504 83.285 0 22.869-4.437 44.715-13.312 65.195-8.875 20.821-21.163 38.571-36.181 53.589s-33.109 26.965-53.931 35.84c-20.821 8.875-42.667 13.312-65.536 13.312h-10.923c-11.264 45.739-35.157 82.944-72.021 112.299-36.523 29.013-78.507 43.691-125.611 43.691-48.128 0-91.136-15.019-128.341-45.056s-61.099-68.267-71.68-114.688c-37.888-8.875-68.949-28.331-93.184-59.051-25.941-31.061-37.888-65.877-37.888-105.131zM395.264 362.325c0-8.533 2.731-15.701 8.192-21.845 5.12-5.12 11.947-7.851 20.821-7.851 8.192 0 15.36 2.731 21.163 7.851l37.888 38.912v-135.851c0-8.192 2.731-15.019 7.851-20.821 5.461-5.803 11.947-8.533 20.139-8.533 7.851 0 14.677 2.731 20.48 8.533s8.533 12.629 8.533 20.821v134.485l38.229-37.888c13.653-10.581 27.648-10.581 41.643 0 5.461 5.12 8.192 12.288 8.192 21.163 0 8.192-2.731 15.019-8.192 21.163l-88.405 87.723c-5.461 5.461-12.288 8.192-20.48 8.192s-15.019-2.731-20.139-8.192l-88.064-87.723c-5.12-5.461-7.851-11.947-7.851-20.139z" />
<glyph unicode="&#xe92a;" glyph-name="cloudy" d="M132.779 359.253c0 33.792 10.581 64.171 31.744 90.453s48.128 43.349 81.237 50.859c8.875 39.936 29.013 73.045 60.757 98.304 31.744 25.6 68.267 38.229 109.909 38.229 40.277 0 76.459-12.288 107.861-37.205 31.744-24.917 52.224-56.661 61.44-95.573h9.216c40.277 0 74.411-13.995 102.741-42.325s42.667-62.464 42.667-102.4c0-40.277-14.336-74.411-42.667-102.741s-62.464-42.667-102.741-42.667h-316.416c-19.797 0-38.571 3.755-56.32 11.605s-33.792 17.408-46.763 30.379c-12.971 12.971-23.211 28.672-31.061 46.421s-11.605 37.205-11.605 56.661zM182.272 359.253c0-25.941 9.557-48.469 27.989-66.901s41.301-27.989 67.925-27.989h316.757c26.283 0 49.152 9.216 67.925 27.989s28.331 40.96 28.331 66.901c0 25.941-9.216 48.469-28.331 66.901-18.773 18.432-41.301 27.989-67.925 27.989h-47.445c-3.413 0-5.12 1.707-5.12 5.12l-2.389 16.725c-3.413 32.085-17.067 59.051-40.619 80.213s-51.541 31.744-83.627 31.744c-32.085 0-60.075-10.581-83.968-32.085-23.893-21.163-37.205-48.128-40.277-79.872l-2.389-14.336c0-3.413-1.707-5.12-5.461-5.12l-15.36-2.389c-24.576-2.048-45.056-12.288-61.781-30.379-15.701-18.091-24.235-39.595-24.235-64.512zM484.352 656.896c-3.413-3.072-2.731-5.461 2.389-7.168 14.677-6.485 26.965-12.629 36.864-18.773 3.755-1.024 6.485-0.683 7.509 1.024 20.821 19.456 44.715 29.355 72.363 29.355s51.2-9.216 71.68-27.648c20.139-18.432 31.403-41.301 33.792-68.267l3.072-21.845h48.469c22.187 0 41.301-7.851 57.344-23.893s23.893-34.816 23.893-56.661c0-20.48-7.168-38.229-21.163-53.589s-31.403-23.893-52.224-26.283c-3.413 0-5.12-1.707-5.12-5.461v-38.571c0-3.755 1.707-5.461 5.12-5.461 34.475 2.048 63.488 15.701 87.040 40.619s35.499 54.613 35.499 88.747c0 36.181-12.629 66.901-38.229 92.16-25.6 25.6-56.32 38.229-92.16 38.229h-5.12c-8.875 34.133-27.648 62.123-56.32 84.309-28.331 22.187-60.416 33.109-95.573 33.109-47.787 0.341-87.723-17.749-119.125-53.931z" />
<glyph unicode="&#xe92b;" glyph-name="cloudy-gusts" d="M123.563 242.859c0 8.533 2.731 15.701 8.533 21.504 5.803 5.461 12.629 8.192 20.48 8.192h185.003c25.259 0 46.763-8.875 64.512-26.965s26.624-39.595 26.624-64.853c0-25.259-8.875-47.104-26.624-64.853s-39.253-26.624-64.512-26.624-47.104 8.875-64.853 26.965c-5.461 5.461-7.851 12.288-7.851 20.48s2.731 15.36 7.851 20.48c5.12 5.461 11.947 8.192 20.48 8.192 7.851 0 14.677-2.731 20.821-8.192 6.827-6.485 14.677-9.899 23.552-9.899s16.725 3.413 23.211 9.899c6.485 6.485 9.899 14.336 9.899 23.893 0 8.875-3.413 16.725-9.899 23.211s-14.336 9.899-23.211 9.899h-185.003c-7.851 0-14.677 2.731-20.48 8.533s-8.533 11.947-8.533 20.139zM123.563 346.624c0 8.192 2.731 15.36 8.533 21.163 5.803 5.461 12.629 8.192 20.48 8.192h360.107c8.875 0 16.725 3.413 23.211 9.899s9.899 14.677 9.899 23.552-3.413 17.067-9.899 23.552c-6.485 6.485-14.336 9.899-23.211 9.899-9.557 0-17.067-3.072-23.211-9.557-6.144-5.12-13.312-7.851-21.845-7.851-8.192 0-15.019 2.731-20.48 7.851-5.12 5.12-7.851 11.947-7.851 20.48s2.389 15.36 7.851 20.821c17.408 17.408 39.253 25.941 65.536 25.941 25.259 0 47.104-8.875 64.853-26.624s26.624-39.253 26.624-64.171-8.875-46.763-26.624-64.512c-17.749-17.749-39.253-26.624-64.853-26.624h-360.107c-8.192 0-15.019 2.731-20.48 8.192-5.803 5.12-8.533 11.947-8.533 19.797zM196.949 427.179c0-2.731 1.707-4.096 5.461-4.096h49.152c2.731 0 5.12 1.707 7.509 5.12 7.509 18.432 19.797 33.792 35.84 46.080 16.384 12.288 34.475 19.115 54.272 20.48l18.091 2.731c4.437 0 6.827 2.048 6.827 5.803l2.389 17.749c3.755 36.864 19.115 67.925 46.763 92.843s60.075 37.547 97.621 37.547c37.888 0 70.656-12.288 98.304-37.205s43.349-55.979 47.445-93.184l2.389-20.139c0-3.755 2.048-5.803 5.803-5.803h55.296c31.061 0 57.344-10.923 79.531-32.768s33.109-47.787 33.109-78.507c0-30.379-10.923-56.661-33.109-78.507s-48.469-32.768-79.531-32.768h-235.861c-4.096 0-6.485-2.048-6.485-5.803v-47.445c0-3.755 2.048-5.803 6.485-5.803h235.861c31.061 0 59.392 7.509 85.675 22.869 26.283 15.019 46.763 35.84 62.123 61.781 15.36 26.283 22.869 54.613 22.869 85.333 0 31.061-7.509 59.392-22.869 85.333s-35.84 46.763-62.123 61.781c-26.283 15.019-54.613 22.869-85.675 22.869h-10.581c-10.581 45.397-34.475 82.603-71.68 111.616-36.864 29.013-79.531 43.349-127.317 43.349-48.128 0-90.795-15.019-128-45.056s-60.757-68.267-70.656-115.029c-29.355-6.827-55.296-20.821-77.824-41.984s-38.229-46.421-47.104-75.435v-1.365c0-0.683 0-1.365 0-2.389z" />
<glyph unicode="&#xe92c;" glyph-name="cloudy-windy" d="M105.813 241.835c0 8.192 2.731 15.36 8.533 20.821s12.971 8.192 21.504 8.192h306.176c8.192 0 14.677-2.731 20.139-8.192s7.851-12.288 7.851-20.821c0-8.192-2.731-15.019-8.192-20.48s-11.947-8.192-20.139-8.192h-305.835c-8.533 0-15.701 2.731-21.504 8.192s-8.533 12.629-8.533 20.48zM195.584 346.283c0 8.192 3.072 15.019 9.216 20.48 4.779 5.12 11.605 7.851 20.139 7.851h307.2c7.851 0 14.336-2.731 19.797-7.851s7.851-11.947 7.851-20.139c0-8.192-2.731-15.019-7.851-20.821s-11.947-8.533-19.797-8.533h-307.2c-7.851 0-14.677 3.072-20.48 8.875s-8.875 12.288-8.875 20.139zM216.747 425.813c0-3.072 2.048-4.779 5.803-4.779h48.811c3.072 0 5.803 1.707 7.851 4.779 7.851 18.432 19.456 33.792 35.499 46.080s33.792 19.115 53.931 20.48l18.432 2.389c3.755 0 5.803 2.048 5.803 6.144l2.389 17.749c3.755 37.205 19.797 67.925 47.445 92.843 27.989 24.917 60.416 37.205 97.963 37.205 37.205 0 69.291-12.288 96.597-36.523 27.307-24.576 43.349-55.296 48.128-92.16l2.389-20.139c0-3.755 2.048-5.461 6.144-5.461h54.613c31.061 0 57.344-10.923 79.189-32.768s32.768-48.128 32.768-79.189c0-30.037-11.264-55.979-33.109-77.824-22.187-22.187-48.469-33.109-78.848-33.109h-235.179c-4.096 0-6.144-2.048-6.144-5.803v-45.739c0-4.096 2.048-6.144 6.144-6.144h235.179c23.211 0 45.056 4.437 66.219 13.312s38.912 20.821 53.931 35.84 26.965 33.109 35.84 53.931 13.312 42.667 13.312 65.536c0 30.72-7.509 59.051-22.528 84.992s-35.499 46.421-61.44 61.44c-25.941 15.019-54.613 22.528-85.333 22.528h-10.581c-11.264 45.739-35.157 83.285-71.68 112.64-36.864 29.013-78.507 43.691-125.611 43.691-48.469 0-91.136-15.019-128.341-45.397-37.205-30.037-60.757-68.608-70.997-115.712-29.355-6.485-55.296-20.48-77.483-41.301s-37.547-46.080-46.421-75.776v-0.683c-0.341-1.365-0.683-2.048-0.683-3.072zM256 136.363c0 8.192 3.072 15.019 8.875 20.48 5.12 5.461 11.947 7.851 20.139 7.851h306.859c8.192 0 15.36-2.731 20.821-8.192 5.803-5.461 8.533-12.288 8.533-20.48s-2.731-15.019-8.533-20.821c-5.803-5.803-12.629-8.533-20.821-8.533h-306.859c-7.851 0-14.677 2.731-20.48 8.533-5.803 6.144-8.533 12.971-8.533 21.163z" />
<glyph unicode="&#xe92d;" glyph-name="comment" d="M512 896c-282.8 0-511.946-186.2-511.946-416 0-95.26 39.82-182.5 105.82-252.4-29.76-79-91.74-145.76-92.74-146.5-13.25-14-16.75-34.5-9.25-52 7.752-17.5 24.876-29.1 44.116-29.1 123 0 218.2 51.5 278.2 92.5 56-18.1 120.4-28.5 185.8-28.5 282.8 0 510.2 186.26 510.2 416s-227.4 416-510.2 416zM512.2 160c-53.5 0-106.24 8.25-156.76 24.24l-45.5 14.25-39-27.5c-28.5-20.24-67.76-42.76-115-58 14.75 24.24 28.74 51.5 39.76 80.5l21.24 56-41.24 43.74c-36.060 38.57-79.56 102.37-79.56 186.77 0 176.5 186.5 320 416 320s416-143.5 416-320-186.54-320-415.94-320z" />
<glyph unicode="&#xe92e;" glyph-name="comment-dots" d="M288 544c-35.4 0-64-28.4-64-62.2 0-37.2 28.6-65.8 64-65.8s62.2 28.5 62.2 64-26.6 64-62.2 64zM512 545.8c-35.5 0-62.2-28.5-62.2-64s28.5-62.2 62.2-62.2 62.2 28.5 62.2 62.2-26.6 64-62.2 64zM736 544c-35.5 0-62.2-28.5-62.2-64s28.5-64 62.2-64c35.5 0 63.98 28.5 63.98 64 0.020 35.6-28.38 64-63.98 64zM512 897.8c-282.8 0-510.2-186.24-510.2-416 0-95.24 39.82-182.5 105.82-252.6-29.74-79-91.74-145.76-92.74-146.5-13.248-14-16.746-34.5-9.248-52 6.004-19.1 23.128-30.7 42.368-30.7 122.98 0 218.2 51.5 278.2 92.5 57.74-18 120.32-28.5 185.8-28.5 282.8 0 510.2 186.26 510.2 414.2s-227.4 419.6-510.2 419.6zM512 160c-53.5 0-106.24 8.25-156.72 24.24l-45.5 14.25-38.98-27.49c-28.5-20.24-67.74-42.76-114.98-58 14.748 24.24 28.74 51.5 39.74 80.5l21.24 56-41.24 43.74c-35.94 38.56-79.44 102.36-79.44 186.76 0 176.5 186.48 320 414.2 320s414.2-143.5 414.2-320-182.92-320-412.52-320z" />
<glyph unicode="&#xe92f;" glyph-name="comments" horiz-adv-x="1280" d="M416 960c229.8 0 416-157.6 416-352s-186.2-352-416-352c-37.4 0-73.6 4.6-108.2 12.4-61.2-38-149.54-76.4-257.9-76.4-19.96 0-38.040 11.8-45.864 30.2-7.828 18.4-4.051 39.6 9.442 54 1.042 0.8 45.282 49 77.982 112-57.1 60.2-91.46 136.6-91.46 219.8 0 194.4 186.26 352 416 352zM329.2 363.8c29.2-8.4 58.4-11.8 86.8-11.8 176.4 0 320 114.8 320 256s-143.6 256-320 256c-176.4 0-320-114.8-320-256 0-70.4 35.42-122.4 65.14-153.8l47.060-49.8-31.58-60.6c-7.14-12-15.16-27.6-23.52-40.8 35.42 10.2 70.3 26 104.3 48.8l33.4 19 38.4-7zM883.2 703.6c220.8-8.4 396.8-162.6 396.8-351.6 0-83.2-34.4-159.6-91.4-219.8 32.6-63 76.8-111.2 78-112 13.4-14.4 17.2-35.6 7.6-54-6-18.4-24.2-30.2-44.2-30.2-108.2 0-196.6 38.4-257.8 76.4-34.6-7.8-70.8-12.4-108.2-12.4-164 0-305.8 80.4-373.6 197 34.6 4.6 67.8 12.4 99.4 23.2 56-74.4 158-124.2 274.2-124.2 28.4 0 57.6 3.4 86.8 11.8l38.4 7 33.4-19c34-22.8 68.8-38.6 104.4-48.8-8.4 13.2-16.4 28.8-23.6 40.8l-31.6 60.6 47 49.8c29.8 31.2 65.2 83.4 65.2 153.8 0 132.6-126.6 241.8-289.8 254.8l1.8 1.2c0 33-4.4 65-12.8 95.6v0z" />
<glyph unicode="&#xe930;" glyph-name="compass" d="M613.4 309.8l-288.6-111c-40.6-15-77 23.2-62 62l111 288.6c6.4 17 19.8 30.4 36.8 36.8l288.6 111c38.8 15 77-21.4 62-62l-111-288.6c-6.4-17-19.8-30.4-36.8-36.8v0zM510.2 512c-33.6 0-64-28.6-64-64s30.4-64 64-64c37.2 0 65.8 28.6 65.8 64s-28.6 64-65.8 64v0zM1024 448c0-282.8-229.2-512-512-512s-512 229.2-512 512c0 282.8 229.2 512 512 512s512-229.2 512-512zM512 864c-229.8 0-416-186.2-416-416s186.2-416 416-416c229.8 0 416 186.2 416 416s-186.2 416-416 416z" />
<glyph unicode="&#xe931;" glyph-name="copy" d="M1005.2 818.74l-122.5 122.5c-11.9 12.018-28.3 18.76-45.3 18.76h-327.2c-70.7 0-128-57.32-128-128l0.039-512c1.761-70.8 59.161-128 129.761-128h384c70.4 0 128 57.6 128 128v453.5c0 16.96-6.8 33.24-18.8 45.24zM928 320c0-17.672-14.328-32-32-32h-385.8c-17.676 0-32 14.328-32 32v511.74c0 17.672 14.328 32 32 32h256l1.8-95.74c0-35.34 28.66-64 64-64h94.2v-384zM544 64c0-17.672-14.328-32-32-32h-385.8c-17.676 0-32 14.328-32 32l1.76 511.8c0 17.672 14.328 32 32 32h192.040v96.2h-192.020c-70.7 0-128-57.3-128-128l0.020-512c0.004-70.6 57.32-128 128-128h384c70.4 0 128 57.6 128 128v64h-94.2l-1.8-64z" />
<glyph unicode="&#xe932;" glyph-name="copyright" d="M512 960c-282.8 0-512-229.2-512-512s229.2-512 512-512 512 229.2 512 512-229.2 512-512 512zM512 32c-229.4 0-416 186.62-416 416s186.6 416 416 416 416-186.62 416-416-186.6-416-416-416zM510.2 608c0 0 0 0 0 0 42.12 0 81.84-16.624 111.66-46.76 18.75-18.688 49.060-19 67.94-0.312 18.812 18.688 18.938 49.060 0.312 67.94-48 48.44-111.9 75.12-179.9 75.12 0 0 0.063 0 0 0-67.94 0-131.9-26.68-179.9-75.12-98.88-99.76-98.88-262 0-361.8 48-48.44 111.96-75.12 179.9-75.12 0.063 0 0 0 0 0 68 0 131.9 26.68 179.9 75.12 18.624 18.876 18.5 49.24-0.312 67.94-18.876 18.624-49.18 18.438-67.94-0.312-29.82-30.12-69.54-46.76-111.66-46.76 0 0 0.063 0 0 0-42.18 0-81.9 16.624-111.78 46.76-61.88 62.44-61.88 164.060 0 226.6 29.98 30.105 69.58 46.705 111.78 46.705z" />
<glyph unicode="&#xe933;" glyph-name="credit-card" horiz-adv-x="1152" d="M336 288c26.6 0 48-21.4 48-48s-21.4-48-48-48h-96c-26.6 0-48 21.4-48 48s21.4 48 48 48h96zM720 288c26.6 0 48-21.4 48-48s-21.4-48-48-48h-224c-26.6 0-48 21.4-48 48s21.4 48 48 48h224zM1024 896c70.6 0 128-57.3 128-128v-640c0-70.6-57.4-128-128-128h-896c-70.7 0-128 57.4-128 128v640c0 70.7 57.3 128 128 128h896zM1024 800h-896c-17.68 0-32-14.32-32-32v-64h960v64c0 17.68-14.4 32-32 32zM1056 512h-960v-384c0-17.6 14.32-32 32-32h896c17.6 0 32 14.4 32 32v384z" />
<glyph unicode="&#xe934;" glyph-name="day-cloudy" d="M53.248 383.147c0-30.72 7.509-59.051 22.528-84.992s35.499-46.421 61.44-61.44c25.941-15.019 53.931-22.528 84.309-22.528h369.664c30.379 0 58.709 7.509 84.651 22.528s46.763 35.499 61.781 61.44c15.019 25.941 22.869 54.272 22.869 84.992 0 22.528-4.779 45.397-14.336 68.267 25.941 31.403 38.912 69.291 38.912 112.64 0 24.235-4.779 47.445-13.995 69.632s-22.187 40.96-38.229 57.003c-16.043 16.043-34.816 29.013-57.003 38.229-22.187 9.557-45.397 13.995-69.632 13.995-50.517 0-94.549-19.797-132.437-59.392-26.283 15.019-57.003 22.528-92.16 22.528-48.128 0-90.453-15.019-127.317-44.715s-60.757-67.925-70.997-114.347c-38.229-8.875-69.291-28.331-93.525-59.051s-36.523-65.536-36.523-104.789zM111.616 383.147c0 28.672 9.557 53.248 28.672 74.069s43.008 32.768 71.68 36.181l17.067 1.024c4.096 0 6.485 2.048 6.485 6.144l2.389 18.432c4.779 36.864 20.821 67.925 48.128 92.501 27.307 24.917 59.392 37.205 95.915 37.205 37.547 0 70.315-12.629 97.963-37.547 27.989-24.917 43.349-55.637 46.763-92.501l2.389-19.797c0.683-3.755 3.072-5.803 7.168-5.803h54.955c30.037 0 55.979-10.923 77.824-32.768s32.768-47.445 32.768-77.483c0-31.061-10.923-57.344-32.427-79.189s-47.787-32.768-77.824-32.768h-370.005c-30.037 0-55.637 10.923-77.483 33.109-21.504 22.187-32.427 48.469-32.427 79.189zM340.309 801.963c0-8.192 2.731-15.36 8.192-21.504l22.528-21.845c8.533-6.485 15.701-9.216 21.845-8.533 7.168 0 13.312 3.072 18.773 8.875s8.192 12.971 8.192 21.163c0 8.192-3.072 15.019-8.875 20.139l-20.139 22.528c-6.144 5.461-12.971 8.192-20.821 8.192-8.192 0-15.36-2.731-21.163-8.533-5.803-5.461-8.533-12.288-8.533-20.48zM522.581 650.752c23.552 22.869 51.541 34.133 83.627 34.133 33.792 0 62.464-11.605 86.016-35.157s35.499-51.883 35.499-85.675c0-21.163-5.803-42.325-17.408-62.805-33.109 32.768-72.704 49.152-119.125 49.152h-10.923c-8.533 37.205-27.648 70.656-57.685 100.352zM578.219 830.976c0-8.875 2.731-15.701 7.851-21.163s11.947-7.851 20.139-7.851c8.875 0 15.701 2.731 21.163 7.851 5.461 5.461 7.851 12.288 7.851 21.163v69.973c0 8.192-2.731 14.677-8.192 20.139s-12.288 7.851-20.821 7.851c-8.192 0-14.677-2.731-20.139-7.851s-7.851-11.947-7.851-20.139v-69.973zM766.635 752.811c0-8.875 2.389-15.701 7.509-21.163 7.168-5.461 14.336-8.192 21.163-8.192 6.144 0 12.971 2.731 20.139 8.192l48.811 48.811c5.461 6.144 8.192 13.312 8.192 21.845 0 8.192-2.731 15.019-8.192 20.48s-12.288 8.192-20.139 8.192c-8.192 0-14.677-2.731-19.797-8.192l-50.176-48.811c-5.12-6.485-7.509-13.312-7.509-21.163zM793.6 348.672c0-8.192 2.731-15.36 8.533-21.504l22.187-21.504c5.12-5.461 11.605-8.192 19.797-8.192s15.019 2.731 20.48 8.533c5.461 5.803 8.192 12.629 8.192 21.163 0 7.509-2.731 14.336-8.192 19.797l-22.187 22.187c-5.461 5.461-11.947 8.192-19.456 8.192-8.192 0-15.019-2.731-20.48-8.192-5.803-5.461-8.875-12.288-8.875-20.48zM843.776 564.053c0-7.851 3.072-14.336 8.875-19.797 5.461-5.461 12.629-8.192 20.821-8.192h69.632c7.851 0 14.336 2.731 19.797 7.851s7.851 11.947 7.851 20.139c0 8.192-2.731 15.019-7.851 20.48s-11.947 8.533-19.797 8.533h-69.632c-8.192 0-15.019-2.731-20.821-8.533-6.144-5.803-8.875-12.629-8.875-20.48z" />
<glyph unicode="&#xe935;" glyph-name="day-cloudy-gusts" d="M11.947 242.859c0-8.192 3.072-15.019 9.216-20.48 5.803-5.803 12.629-8.533 20.821-8.533h200.704c8.875 0 16.384-3.072 23.211-9.557s10.24-14.336 10.24-23.211-3.413-17.067-10.24-23.552c-6.827-6.485-14.336-9.899-23.211-9.899s-16.384 3.413-23.211 10.24c-6.144 5.461-12.971 8.192-20.821 8.192-8.192 0-15.019-2.731-20.48-8.192s-8.192-12.288-8.192-20.48c0-8.192 2.731-15.019 8.192-20.48 18.091-18.091 39.595-27.307 64.512-27.307 25.259 0 46.763 8.875 64.171 26.624 17.749 17.749 26.624 39.253 26.624 64.512s-8.875 46.763-26.624 64.512c-17.749 18.091-39.253 26.965-64.171 26.965h-200.704c-8.192 0-15.019-3.072-21.163-8.875s-8.875-12.629-8.875-20.48zM11.947 345.6c0-7.509 3.072-13.995 9.216-19.456 5.803-5.803 12.629-8.533 20.821-8.533h374.443c25.259 0 46.763 8.875 64.512 26.624s26.624 39.253 26.624 64.512c0 25.259-8.875 46.421-26.624 64.171-17.749 17.408-39.253 26.283-64.512 26.283-25.941 0-47.104-8.533-64.171-25.941-5.461-5.461-7.851-12.629-7.851-20.821s2.731-15.019 7.851-20.48c5.12-5.12 11.947-7.851 20.48-7.851 8.192 0 15.019 2.731 21.163 7.851 6.485 6.485 13.995 9.557 22.869 9.557s16.725-3.072 23.211-9.557c6.485-6.485 9.899-14.336 9.899-23.211 0-9.216-3.413-17.067-9.899-23.552s-14.336-9.899-23.211-9.899h-374.784c-8.192 0-15.019-3.072-21.163-8.875-6.144-6.144-8.875-12.971-8.875-20.821zM102.4 425.813c0-2.731 2.048-4.096 5.803-4.096h48.811c2.389 0 4.437 1.707 6.827 4.779 7.509 18.432 19.456 33.792 35.84 46.080 16.043 11.947 34.133 18.773 54.613 20.48l18.091 2.389c4.096 0 6.485 2.048 6.485 5.803l2.389 17.749c3.755 36.864 19.115 67.584 46.763 92.501s60.075 37.205 97.28 37.205c37.547 0 69.973-12.288 97.621-36.864s43.349-55.637 47.104-92.501l2.389-19.797c0-4.096 2.048-6.144 6.144-6.144h55.637c30.72 0 57.003-10.581 78.507-32.085s32.427-47.445 32.427-77.483c0-30.379-10.923-56.661-32.427-78.165s-47.787-32.427-78.507-32.427h-235.52c-4.437 0-6.485-2.048-6.485-6.144v-46.763c0-3.755 2.048-5.803 6.485-5.803h235.52c30.379 0 58.709 7.509 84.651 22.869 25.941 15.019 46.421 35.84 61.44 61.781s22.528 54.272 22.528 84.651c0 25.259-4.779 48.128-14.336 69.291 25.941 33.792 38.571 71.68 38.571 112.981 0 32.085-8.192 61.781-24.235 89.429s-37.888 49.493-65.536 65.536c-27.648 16.043-57.344 24.235-89.429 24.235-52.565 0-96.597-19.797-131.755-59.051-27.307 13.995-57.685 20.821-91.136 20.821-48.128 0-90.453-15.019-127.317-44.715s-60.416-67.925-70.315-114.005c-29.013-6.827-54.613-20.821-76.8-41.984s-37.888-46.080-46.421-74.752v-1.365c-1.365-2.389-1.707-3.413-1.707-4.437zM381.611 802.304c0-7.851 3.072-14.677 9.216-20.48l20.821-22.187c5.461-5.461 12.629-8.192 20.821-8.192 8.533 0 15.36 2.731 20.821 7.851s8.192 11.947 8.192 20.48c0 8.192-2.389 15.019-7.851 20.48l-22.528 22.187c-5.461 5.803-11.947 8.875-20.139 8.875s-15.019-2.731-20.821-8.533c-5.803-5.803-8.533-12.629-8.533-20.48zM563.2 651.776c24.576 23.211 52.565 34.816 84.651 34.816 33.109 0 61.44-11.947 85.675-35.84 23.893-23.893 35.84-52.565 35.84-85.675 0-22.187-5.803-43.008-17.749-62.464-32.768 32.768-72.021 48.811-118.101 48.811h-11.605c-7.851 37.205-27.648 70.656-58.709 100.352zM618.496 830.635c0-7.851 2.731-14.677 8.533-20.139s12.629-8.192 20.48-8.192c8.192 0 15.019 2.731 20.821 8.192s8.533 11.947 8.533 20.139v69.973c0 8.192-2.731 15.019-8.533 20.821s-12.629 8.533-20.821 8.533c-8.192 0-15.019-2.731-20.48-8.533s-8.533-12.629-8.533-20.821v-69.973zM807.936 753.152c0-8.192 2.731-15.019 7.851-20.48 5.803-5.803 12.629-8.533 20.821-8.875s14.677 2.731 19.456 8.875l49.835 48.811c5.803 5.803 8.533 12.629 8.533 20.821 0 7.851-2.731 14.677-8.533 20.48s-12.629 8.533-20.821 8.533-15.019-2.389-20.48-7.851l-48.811-50.176c-5.12-5.461-7.851-11.947-7.851-20.139zM834.219 349.355c0-7.851 2.731-14.677 8.533-20.48l21.845-22.187c6.827-5.461 13.995-8.192 21.163-8.192 6.485 0 13.312 2.731 20.139 8.192 5.803 5.803 8.533 12.629 8.533 20.48 0 7.509-2.731 14.336-8.533 20.821l-21.845 22.187c-5.461 5.461-12.288 8.192-19.797 8.192-8.533 0-15.701-2.731-21.504-8.533-5.803-5.461-8.533-12.288-8.533-20.48zM885.76 565.077c0-8.192 2.731-14.677 8.533-20.139 5.12-6.144 11.605-8.875 19.456-8.875h68.949c8.192 0 15.019 2.731 20.821 8.533s8.533 12.629 8.533 20.48c0 7.851-3.072 14.677-8.875 20.48s-12.629 8.875-20.48 8.875h-68.949c-8.192 0-14.677-2.731-20.139-8.533-5.12-5.803-7.851-12.629-7.851-20.821z" />
<glyph unicode="&#xe936;" glyph-name="day-cloudy-high" d="M134.827 514.56c0 31.744 9.899 59.733 29.696 84.651s44.715 40.96 74.752 47.787c8.875 37.547 27.989 68.267 58.027 92.501s64.171 36.181 102.741 36.181c37.547 0 70.997-11.947 100.693-35.499s48.811-53.589 57.344-90.453h8.875c37.547 0 69.632-13.312 96.256-39.595s39.936-58.368 39.936-95.915c0-0.341 0-0.683 0-1.365s0-1.365 0-2.048c25.6-27.307 38.229-59.733 38.229-97.28 0-25.941-6.485-49.835-19.456-71.68-12.971-22.187-30.379-39.595-52.224-52.224-21.845-12.971-45.739-19.115-71.339-19.115-32.768 0-62.123 10.24-87.381 30.379s-42.325 46.080-50.517 77.141h-194.56c-36.523 1.707-67.584 15.701-92.843 41.984s-38.229 58.027-38.229 94.549zM181.248 514.56c0-23.893 8.192-44.715 24.917-62.123s36.523-26.965 59.733-27.989h306.859c23.211 1.024 43.349 10.24 59.733 27.989 16.725 17.749 24.917 38.229 24.917 62.123 0 24.235-8.875 45.056-26.965 62.464-18.091 17.749-38.912 26.283-63.488 26.283h-44.032c-3.072 0-4.779 1.707-4.779 4.779l-2.389 16.043c-3.072 29.696-15.701 54.613-38.229 74.752s-48.469 30.379-77.824 30.379c-30.379 0-56.661-9.899-78.848-30.037s-34.133-45.056-37.205-74.752l-2.048-16.043c0-3.072-1.707-4.779-5.461-4.779h-13.653c-22.869-2.731-42.325-12.288-57.685-29.355-15.701-16.725-23.552-36.864-23.552-59.733zM392.875 207.019c-8.533 11.264-8.533 22.187 0 33.451l38.571 39.253c4.779 4.096 10.581 6.144 17.749 6.144 6.485 0 11.605-2.048 15.701-6.144s6.144-9.557 6.144-16.043c0-6.827-2.048-12.288-6.144-16.384l-38.912-40.277c-4.096-4.096-9.899-6.485-16.725-6.485s-12.288 2.389-16.384 6.485zM508.587 378.368c7.168-18.432 19.115-33.109 35.499-44.373s34.475-17.067 54.613-17.067c26.283 0 48.811 9.557 67.243 28.331 18.432 19.115 27.648 41.984 27.648 68.949 0 13.312-2.048 25.259-6.485 35.84-11.264-20.821-27.307-37.888-47.445-50.859-20.48-12.971-42.667-19.797-66.901-20.821h-64.171zM575.147 201.216c0 6.485 2.389 11.605 6.827 16.043 4.437 4.096 10.24 6.485 16.384 6.485s11.947-2.389 17.067-7.168c4.096-4.096 6.485-9.216 6.485-15.36v-55.979c0-6.485-2.389-11.947-6.827-16.725s-10.24-7.168-16.384-7.168-11.947 2.389-16.384 7.168c-4.437 4.779-6.827 10.24-6.827 16.725v55.979zM725.675 263.68c0 6.144 2.048 11.264 6.485 15.701 4.437 4.096 9.899 6.485 16.043 6.485 6.485 0 11.947-2.048 16.043-6.144l40.277-39.253c4.437-4.779 6.827-10.24 6.827-16.384 0-6.485-2.389-11.947-6.827-16.384s-10.24-6.827-16.725-6.827c-7.168 0-12.629 2.048-17.067 6.485l-38.571 40.277c-4.437 4.779-6.485 10.24-6.485 16.043zM725.675 564.395c0 6.485 2.048 11.947 6.485 16.043l38.571 40.277c4.779 4.096 10.24 6.485 17.067 6.485 6.485 0 11.947-2.048 17.067-6.485 4.437-5.12 6.827-10.923 6.827-17.408 0-6.144-2.389-11.264-6.827-16.384l-40.277-39.253c-4.096-4.096-9.557-6.485-16.043-6.485s-11.947 2.048-16.043 6.485c-4.779 4.779-6.827 10.24-6.827 16.725zM787.797 414.208c0 6.485 2.048 11.947 6.485 16.384 4.096 4.437 9.557 6.827 16.043 6.827h55.296c6.485 0 12.288-2.389 17.067-6.827s7.168-9.899 7.168-16.384c0-6.485-2.389-12.288-7.168-16.725s-10.24-6.827-17.067-6.827h-55.296c-6.485 0-11.605 2.389-16.043 6.827s-6.485 9.899-6.485 16.725z" />
<glyph unicode="&#xe937;" glyph-name="day-cloudy-windy" d="M15.36 244.224c0-8.192 2.731-15.36 8.192-20.821 15.019-6.144 24.917-9.216 30.037-9.216h268.971c8.192 0 15.019 3.072 20.48 8.875 5.803 5.803 8.533 12.971 8.533 20.821s-2.731 14.677-8.533 20.139c-5.803 5.461-12.629 8.192-20.48 8.192h-268.971c-8.875 0-17.749-2.731-25.941-8.192s-12.288-12.288-12.288-19.797zM62.805 346.624c0-8.192 2.731-14.677 8.533-20.139 5.12-5.803 11.605-8.875 19.797-8.875h320.853c8.192 0 15.019 2.731 20.821 8.533s8.533 12.629 8.533 20.48c0 8.192-2.731 15.019-8.533 20.821s-12.629 8.533-20.821 8.533h-320.853c-7.851 0-14.677-2.731-20.139-8.533s-8.192-12.629-8.192-20.821zM98.645 427.52c0-3.072 2.048-4.437 5.803-4.437h47.445c4.096 0 6.485 1.365 7.509 4.437 8.875 18.091 21.163 33.109 37.205 45.056s34.133 18.773 53.931 21.163h18.432c3.755 0 5.461 2.048 5.461 6.485l2.389 19.115c2.389 24.235 10.24 46.421 23.552 66.56 13.312 19.797 30.72 35.499 52.224 46.763s44.373 17.067 68.949 17.067c37.205 0 69.632-12.629 97.28-37.547s43.349-55.979 47.445-92.843l2.389-19.115c0-4.096 2.048-6.485 6.144-6.485h54.613c30.379 0 56.32-10.923 78.507-32.768s33.109-47.445 33.109-77.483c0-30.72-10.923-57.003-33.109-78.848-21.845-21.845-48.128-32.768-78.848-32.768h-235.179c-3.755 0-5.803-2.048-5.803-6.485v-45.397c0-4.096 2.048-6.144 5.803-6.144h235.179c30.72 0 59.051 7.509 84.992 22.869 25.941 15.019 46.763 35.84 61.781 61.781s22.869 54.272 22.869 84.992c0 24.917-4.779 47.445-14.677 68.608 26.624 32.768 39.595 70.315 39.595 111.957 0 32.085-8.192 61.781-24.235 89.429s-37.888 49.493-65.536 65.536c-27.648 16.043-57.685 24.235-89.771 24.235-24.917 0-48.811-5.12-71.68-15.36s-42.667-24.235-59.392-42.667c-28.331 14.677-59.051 22.187-92.16 22.187-48.128 0-91.136-15.019-128.341-44.715s-61.099-67.925-71.339-114.688c-29.013-7.168-54.613-21.504-76.8-42.667s-37.547-46.421-46.080-75.435c0.683-0.683 0.341-1.365 0.341-2.389zM122.88 135.339c0-8.192 3.072-14.677 8.875-20.139 5.461-5.803 12.288-8.533 20.139-8.533h321.536c7.851 0 14.677 2.731 20.139 8.533s8.192 12.288 8.192 20.48c0 8.533-2.731 15.701-8.192 21.163s-12.288 8.533-20.48 8.533h-321.195c-8.192 0-15.019-2.731-20.48-8.533s-8.533-12.971-8.533-21.504zM378.539 801.28c0-8.533 2.731-15.36 8.192-20.48l21.845-22.528c5.461-5.461 12.288-8.192 20.48-8.192 8.875 0 15.701 2.731 21.163 8.192s8.192 12.288 8.192 20.821c0 7.851-2.731 14.677-8.192 20.139l-22.187 22.187c-5.803 5.803-12.288 8.533-19.456 8.533-8.533 0-15.701-2.731-21.504-8.533s-8.533-12.288-8.533-20.139zM561.493 651.776c22.528 21.504 50.517 32.427 83.627 32.427s61.44-11.605 84.992-35.157c23.211-23.211 35.157-51.541 35.157-84.992 0-22.869-5.12-43.349-15.701-61.781-32.085 32.427-72.021 48.811-119.467 48.811h-10.24c-9.899 39.253-29.355 72.704-58.368 100.693zM616.107 829.952c0-8.192 2.731-14.677 8.533-20.139s12.288-7.851 20.48-7.851c8.533 0 15.36 2.731 20.48 7.851s7.851 11.947 7.851 20.48v69.632c0 8.192-2.731 15.36-7.851 20.821-5.461 5.803-12.288 8.533-20.48 8.533-7.851 0-14.677-2.731-20.48-8.533s-8.533-12.629-8.533-20.821v-69.973zM804.523 752.128c0-8.192 2.731-15.019 8.533-20.48 4.096-5.461 11.264-8.192 20.48-8.192s16.043 2.731 20.139 8.192l49.835 49.152c5.461 5.12 8.192 12.288 8.192 21.163 0 7.851-2.731 14.677-8.533 20.48s-12.629 8.533-20.48 8.533-15.019-2.731-20.821-7.851l-48.469-50.859c-5.803-5.803-8.875-12.288-8.875-20.139zM831.829 347.307c0-8.192 2.731-15.019 7.851-20.48l22.528-21.504c8.192-6.144 15.36-9.216 20.821-9.216s12.629 3.072 20.821 9.216c5.461 5.461 8.192 12.288 8.192 20.48 0 7.851-2.731 14.677-8.192 20.821l-21.845 20.821c-6.485 5.803-13.653 8.875-22.187 8.875-8.192 0-14.677-2.731-20.139-8.192-5.12-5.803-7.851-12.629-7.851-20.821zM880.981 563.029c0-8.192 3.072-15.36 9.216-20.821 6.144-5.803 12.971-8.533 20.48-8.533h69.291c7.851 0 14.336 2.731 20.139 8.533s8.533 12.629 8.533 20.821c0 7.509-2.731 13.995-8.192 19.456-5.461 5.12-12.288 7.851-20.139 7.851h-69.291c-8.192 0-15.36-2.731-21.163-7.851-5.803-5.461-8.875-11.947-8.875-19.456z" />
<glyph unicode="&#xe938;" glyph-name="day-fog" d="M10.923 241.152c0-7.851 2.731-14.677 8.533-20.139s12.971-8.192 21.504-8.192h638.635c8.192 0 15.019 2.731 20.821 8.192s8.533 11.947 8.533 20.139c0 8.192-2.731 15.019-8.533 20.48-5.803 5.803-12.629 8.533-20.821 8.533h-638.635c-8.533 0-15.701-2.731-21.504-8.533s-8.533-12.288-8.533-20.48zM100.352 348.331c0-7.851 2.731-14.677 8.533-19.797 5.803-6.144 12.629-9.216 20.48-9.216h638.976c7.851 0 14.677 2.731 20.139 8.533s8.192 12.629 8.192 20.48c0 7.851-2.731 14.677-7.851 20.139-5.461 5.461-11.947 8.192-20.139 8.192h-638.976c-8.192 0-15.019-2.731-20.48-8.192-5.803-5.803-8.875-12.288-8.875-20.139zM104.789 430.251c0-3.072 1.707-4.437 5.461-4.437h48.811c2.389 0 4.779 1.707 7.168 5.461 8.192 17.749 20.139 32.085 36.181 43.349s33.792 17.749 53.248 19.115l18.432 2.389c3.755 0 5.803 2.048 5.803 6.144l2.389 17.408c3.755 36.864 19.115 67.584 46.763 92.501 27.648 24.576 60.075 37.205 97.621 37.205 36.864 0 69.291-12.288 96.939-36.864s43.349-54.955 47.104-91.477l2.389-19.797c0-3.755 2.048-5.803 6.485-5.803h54.955c21.845 0 41.984-5.803 60.075-17.749 18.091-11.605 31.403-27.307 40.277-46.763 2.389-3.755 4.437-5.461 6.827-5.461h49.152c4.437 0 6.144 2.389 4.437 7.851l-6.827 18.773c25.941 32.085 38.571 69.632 38.571 112.981 0 24.235-4.779 47.104-13.995 69.291s-21.845 40.96-37.888 57.003c-15.701 16.043-34.816 28.672-57.003 38.229s-45.056 13.653-69.632 13.653c-52.565 0-96.256-19.115-130.389-57.344-29.013 14.336-59.392 21.504-91.477 21.504-47.787 0-90.453-15.019-127.659-45.056s-61.099-68.267-71.68-115.029c-60.757-16.043-101.717-53.931-122.197-114.347-0.341-0.341-0.341-1.365-0.341-2.731zM160.085 136.363c0-8.192 3.072-15.019 9.216-20.48 5.461-5.803 11.947-8.875 20.139-8.875h639.659c7.851 0 14.677 2.731 20.48 8.533s8.533 12.629 8.533 20.821c0 7.851-2.731 14.336-8.533 19.797-5.803 5.12-12.629 7.851-20.48 7.851h-639.659c-8.192 0-15.019-2.731-20.821-7.851-5.803-5.461-8.533-11.947-8.533-19.797zM384.341 800.939c0-8.192 2.731-14.677 7.851-20.139l22.187-21.845c5.803-6.144 12.288-9.216 19.797-9.216s14.336 2.731 20.48 8.533c5.803 5.803 8.875 12.629 8.875 20.821s-2.731 15.36-8.533 21.504l-21.845 20.821c-5.461 5.803-12.288 8.875-20.48 8.875s-15.019-2.731-20.48-8.533c-5.12-5.461-7.851-12.629-7.851-20.821zM565.931 651.435c22.869 23.211 50.517 34.475 82.944 34.475 33.451 0 62.123-11.947 85.675-35.499s35.499-52.224 35.499-85.333c0-22.187-5.461-42.667-16.725-61.44-32.427 32.427-72.021 48.469-118.443 48.469h-11.605c-9.899 40.277-29.013 73.387-57.344 99.328zM620.544 829.952c0-7.851 2.731-14.677 8.192-20.139s11.947-8.192 20.139-8.192c8.533 0 15.701 2.731 21.504 8.192s8.533 11.947 8.533 20.139v69.973c0 7.851-3.072 14.677-8.875 20.48-6.144 5.803-13.312 8.533-21.504 8.533-7.851 0-14.677-2.731-20.139-8.533s-8.192-12.629-8.192-20.48v-69.973zM807.936 752.469c0-7.509 2.731-14.677 8.192-20.48 12.629-12.288 26.624-12.288 41.984 0l48.811 48.811c5.461 6.144 8.192 13.312 8.192 21.845 0 7.851-2.731 14.677-8.192 20.139s-12.288 8.192-20.139 8.192c-8.192 0-15.019-2.731-20.48-8.192l-49.835-50.176c-5.803-6.144-8.533-12.971-8.533-20.139zM835.584 349.696c0-8.192 3.072-15.019 8.875-20.48l21.845-22.187c5.461-5.461 12.288-8.192 19.797-8.192 7.168 0 13.995 2.731 20.821 8.192 5.461 5.803 8.192 13.312 8.192 21.845 0 7.509-2.731 13.995-8.192 19.115l-22.187 22.528c-6.144 5.461-12.971 8.192-20.48 8.192-8.192 0-15.019-2.731-20.48-8.533-5.461-5.461-8.192-12.288-8.192-20.48zM886.101 565.077c0-8.192 3.072-15.019 8.875-20.48 5.12-5.803 11.947-8.533 20.139-8.533h69.973c7.851 0 14.677 2.731 20.139 8.533s8.192 12.629 8.192 20.48c0 8.192-2.731 15.019-8.192 20.48s-11.947 8.192-20.139 8.192h-69.973c-8.192 0-15.019-2.731-20.48-8.533-5.803-5.461-8.533-12.288-8.533-20.139z" />
<glyph unicode="&#xe939;" glyph-name="day-hail" d="M50.517 383.829c0-45.739 16.043-84.992 47.787-117.76s70.656-50.176 116.053-52.224c4.096 0 6.144 2.048 6.144 5.803v45.739c0 4.096-2.048 6.144-6.144 6.144-29.355 1.365-54.272 13.312-74.752 35.157s-30.72 47.787-30.72 77.141c0 28.331 9.557 52.907 29.013 74.069s43.349 33.109 71.68 36.523l18.091 1.365c4.437 0 6.827 2.048 6.827 6.144l2.389 18.773c3.755 36.864 19.115 67.925 46.763 92.501 27.648 24.917 60.075 37.205 97.621 37.205 37.205 0 69.632-12.288 97.621-37.205s44.032-55.637 47.787-92.501l2.389-19.797c0-4.096 2.048-6.485 5.803-6.485h55.296c30.379 0 57.003-10.923 79.189-32.768s33.451-47.787 33.451-77.483c0-29.696-10.24-55.296-31.061-77.141s-45.739-33.451-74.752-35.157c-4.437 0-6.827-2.048-6.827-6.144v-45.739c0-3.755 2.389-5.803 6.827-5.803 45.739 1.365 84.309 18.773 115.712 51.541 31.744 33.109 47.445 72.363 47.445 118.101 0 25.259-4.779 48.128-13.995 68.608 26.965 32.768 40.277 70.656 40.277 113.664 0 32.085-8.192 62.123-24.235 89.771-16.384 27.648-38.229 49.493-65.877 65.877-27.648 16.043-57.685 24.235-89.771 24.235-53.248 0-97.621-19.797-133.12-59.733-27.307 15.019-58.027 22.528-92.501 22.528-48.128 0-91.136-15.019-128.341-44.715s-61.44-68.267-72.021-115.029c-37.888-8.875-68.949-28.672-93.525-59.392-24.235-31.403-36.523-66.56-36.523-105.813zM232.789 142.848c3.413-7.509 8.533-12.629 15.701-15.36 6.827-3.413 13.995-3.755 21.504-0.683 7.509 2.731 12.629 7.851 15.36 15.36 3.413 7.509 3.755 14.677 0.683 22.187-2.731 7.168-7.851 12.288-15.36 15.019-6.827 3.755-13.995 4.096-21.163 1.024-7.509-3.072-12.629-8.192-16.043-16.043-3.413-6.144-3.755-13.312-0.683-21.504zM254.635 239.787c0-4.779 1.024-9.216 3.072-12.971 6.485-10.581 16.725-15.701 30.379-15.701 10.923 0 18.773 7.509 23.552 22.187l35.499 109.909c2.731 8.192 2.048 16.043-2.389 22.869s-10.581 11.264-18.773 12.629c-7.168 1.707-14.336 1.024-21.163-2.389-6.827-3.755-11.605-9.557-13.995-17.067l-35.157-109.909c-0.683-3.413-1.024-6.827-1.024-9.557zM318.464 47.957c0-4.437 0.683-7.851 1.707-9.899 3.072-7.509 8.192-12.629 15.36-15.36 3.072-1.707 7.168-2.389 11.947-2.389 2.048 0 5.461 0.683 10.24 2.048 7.509 2.731 12.971 7.851 16.043 15.36s3.413 15.019 0 22.528c-3.413 7.509-8.533 12.629-15.36 15.36s-13.995 2.731-21.163 0c-6.485-2.389-11.264-6.485-14.336-11.947s-4.437-10.923-4.437-15.701zM339.285 804.011c0-8.533 2.731-15.36 8.192-20.48l22.187-22.187c5.461-5.461 11.605-8.533 18.432-9.216 7.168-1.024 13.995 1.707 20.821 7.851s10.24 13.653 10.24 21.845c0 8.192-2.731 15.019-8.192 20.48l-21.845 21.845c-6.485 5.803-13.312 8.533-21.163 8.533-8.192 0-15.36-2.731-20.821-8.192-5.12-5.803-7.851-12.629-7.851-20.48zM343.381 139.776c0-5.461 1.707-10.923 5.461-16.384s9.216-9.216 16.384-11.264c3.755-0.683 6.485-1.365 8.192-1.365 5.12 0 9.557 1.024 12.971 2.731 6.827 2.731 11.605 9.216 14.677 19.456l61.44 209.579c2.389 8.192 1.707 15.36-2.048 22.187s-9.216 11.264-17.067 13.312c-8.192 2.389-15.701 1.707-22.528-2.048s-11.605-9.216-13.995-17.408l-62.805-211.285c-0.341-3.755-0.683-6.485-0.683-7.509zM461.141 153.088c0-4.437 0.683-7.851 2.389-10.581 3.072-7.168 8.192-11.947 15.36-15.019 3.755-1.707 7.509-2.731 11.947-2.731 2.048 0 5.461 0.683 10.24 2.048 7.851 3.072 12.971 7.851 15.701 15.019 2.731 7.509 2.731 14.677 0 21.504s-7.509 11.947-14.336 15.36c-7.851 3.755-15.019 4.096-22.528 1.024-7.168-3.072-12.629-8.192-16.384-16.043-1.707-2.731-2.389-6.144-2.389-10.581zM485.717 240.469c0-5.461 1.707-10.581 5.12-15.36 3.413-5.12 8.875-8.533 15.701-10.581 3.072-0.683 5.803-1.024 8.533-1.024 13.312 0 22.187 6.827 26.965 20.821l35.157 108.544c2.731 7.851 1.707 15.36-2.389 22.187s-9.899 11.264-17.749 13.312c-8.192 2.389-15.36 1.707-21.845-2.048s-10.923-9.216-13.653-17.408l-34.816-109.227c-0.341-4.437-1.024-7.509-1.024-9.216zM522.24 652.8c22.869 21.845 51.2 33.109 84.651 33.109s61.781-11.605 85.333-35.157c23.552-23.211 35.499-51.541 35.499-84.992 0-21.163-5.803-42.325-17.749-63.147-32.768 32.768-72.363 49.152-119.808 49.152h-9.899c-10.24 39.595-29.355 73.387-58.027 101.035zM577.536 832.683c0-8.192 2.731-15.019 8.533-20.821s12.629-8.533 20.821-8.533c7.851 0 14.677 2.731 20.139 8.533s8.192 12.629 8.192 20.821v70.315c0 8.192-2.731 15.019-8.192 20.821s-11.947 8.533-20.139 8.533c-8.192 0-15.019-2.731-20.821-8.533s-8.533-12.629-8.533-20.821v-70.315zM766.976 754.517c0-8.192 2.731-15.019 8.533-20.48 5.12-5.803 11.605-8.875 19.797-8.875 7.851 0 15.019 3.072 20.48 8.875l49.152 49.152c6.144 5.12 9.216 11.947 9.216 20.48 0 8.192-3.072 15.019-8.875 20.821s-12.971 8.533-20.821 8.533c-7.509 0-13.995-3.072-19.456-9.216l-49.493-48.811c-5.461-5.12-8.533-12.288-8.533-20.48zM794.624 348.331c0-7.851 2.731-14.677 8.192-20.48l22.528-21.504c4.779-6.144 11.605-9.216 20.48-9.216 8.192 0 14.677 3.072 19.456 9.216 6.144 5.461 9.216 12.288 9.216 20.48s-3.072 15.019-9.216 20.821l-22.187 21.163c-5.461 6.144-11.947 8.875-19.797 8.875s-14.677-2.731-20.48-8.533c-5.461-5.803-8.192-12.971-8.192-20.821zM844.459 565.76c0-8.192 3.072-15.019 8.875-20.48 6.144-6.144 12.971-8.875 21.163-8.875h69.291c8.192 0 15.019 2.731 20.821 8.533s8.875 12.629 8.875 20.821c0 7.851-2.731 14.677-8.533 20.139s-12.971 8.192-21.163 8.192h-69.291c-8.533 0-15.701-2.731-21.504-8.192-5.461-5.461-8.533-12.288-8.533-20.139z" />
<glyph unicode="&#xe93a;" glyph-name="day-haze" d="M149.163 426.837c0 8.192 2.731 15.019 8.533 20.821 6.144 5.803 12.971 8.533 20.48 8.533h69.632c7.851 0 14.336-2.731 19.797-8.533 5.12-5.803 7.851-12.629 7.851-20.821s-2.731-15.019-7.851-20.48c-5.12-5.803-11.947-8.533-19.797-8.533h-69.291c-7.851 0-14.677 2.731-20.48 8.533s-8.875 12.629-8.875 20.48zM246.784 662.699c0 7.851 2.731 14.677 7.851 20.821 6.827 5.803 13.995 8.533 21.845 8.533 7.168 0 13.995-2.731 20.139-8.533l48.811-49.835c5.461-5.12 8.192-11.947 8.192-20.139s-2.731-15.019-8.192-20.48c-5.461-5.461-12.288-8.192-20.48-8.192s-15.019 2.731-20.139 8.192l-49.835 48.811c-5.461 5.803-8.192 12.629-8.192 20.821zM252.245 344.917c0 7.509 2.731 13.995 7.851 18.773 5.461 4.779 12.629 7.509 21.845 7.509h194.901c9.216 0 16.384-2.389 21.845-7.509 5.461-4.779 8.192-11.264 8.192-18.773 0-9.216-2.731-16.384-7.851-21.845-5.461-5.461-12.629-8.192-22.187-8.192h-194.901c-9.216 0-16.384 2.731-21.845 7.851s-7.851 12.971-7.851 22.187zM286.037 244.224c0 7.509 3.072 14.336 9.557 20.48 6.144 6.144 13.312 9.216 20.48 9.216 8.875 0 16.043-3.072 21.504-8.875 5.461-6.144 8.192-12.971 8.192-20.821 0-9.557-2.731-16.725-7.851-22.187s-12.629-7.851-21.845-7.851c-7.851 0-15.019 2.731-20.821 8.192-6.144 5.461-9.216 12.971-9.216 21.845zM334.165 416.939v2.389c1.024 43.008 16.043 80.213 44.715 111.957s63.829 50.859 105.813 57.685h1.707c6.485 1.365 15.36 2.048 25.941 2.048s19.456-0.683 25.941-2.048h1.365c41.643-6.485 77.141-25.941 105.813-57.685s43.691-68.949 44.715-111.957v-2.389c0-5.461-2.731-8.192-7.851-8.192h-38.571c-4.096 0-6.827 1.024-8.533 3.072s-2.389 4.096-2.389 6.144c-1.365 31.744-13.653 58.709-36.864 80.896s-50.859 33.109-83.285 33.109-60.075-10.923-83.285-33.109c-23.211-22.187-35.499-49.152-36.864-80.896 0-2.048-1.024-4.096-2.731-6.144s-4.779-3.072-8.875-3.072h-38.571c-5.461 0-8.192 2.731-8.192 8.192zM368.64 244.224c0 7.851 2.731 14.677 8.192 20.821 5.461 5.803 12.629 8.875 21.504 8.875h130.731c7.509 0 14.336-3.072 20.48-9.216s9.557-12.971 9.557-20.48c0-8.875-3.072-16.384-9.216-21.845s-12.971-8.192-20.821-8.192h-130.731c-9.216 0-16.384 2.731-21.845 7.851-5.461 5.461-7.851 12.629-7.851 22.187zM482.645 690.688v69.291c0 8.192 2.731 15.019 8.533 20.821s12.629 8.533 20.821 8.533 14.677-2.731 20.48-8.533c5.803-5.803 8.533-12.629 8.533-20.821v-69.291c0-7.851-2.731-14.677-8.533-19.797s-12.629-8.192-20.48-8.192-15.019 2.731-20.48 7.851-8.875 12.288-8.875 20.139zM529.067 344.917c0 7.168 3.072 13.312 9.216 18.432s12.971 7.851 20.821 7.851 14.677-2.731 20.821-7.851 9.216-11.264 9.216-18.432c0-8.875-3.072-16.384-9.216-21.845s-12.971-8.192-20.821-8.192-15.019 2.731-20.821 8.192c-6.144 5.803-9.216 12.971-9.216 21.845zM581.632 244.224c0 7.851 2.731 14.677 8.192 20.821 5.461 5.803 12.971 8.875 21.845 8.875h63.488c8.875 0 16.043-3.072 21.504-8.875 5.461-6.144 8.192-12.971 8.192-20.821 0-9.557-2.731-16.725-7.851-22.187s-12.629-7.851-21.845-7.851h-63.488c-9.216 0-16.384 2.731-21.845 7.851-5.461 5.461-8.192 12.629-8.192 22.187zM611.669 344.917c0 7.168 3.072 13.312 9.216 18.432s12.971 7.851 20.48 7.851h104.789c7.509 0 13.653-2.389 18.432-7.509s7.509-11.264 7.509-18.773c0-9.216-2.389-16.384-7.168-21.845s-10.923-8.192-18.773-8.192h-104.789c-7.851 0-14.677 2.731-20.821 8.192-5.803 5.803-8.875 12.971-8.875 21.845zM671.061 613.547c0 8.533 2.731 15.36 7.851 20.139l48.469 49.835c6.144 5.803 12.971 8.533 20.139 8.533 7.851 0 14.677-2.731 20.48-8.533s8.533-12.629 8.533-20.821c0-8.192-2.731-15.36-8.192-20.821l-49.835-48.469c-6.144-5.461-12.971-8.192-20.48-8.192-7.851 0-13.995 2.731-19.115 8.192-5.12 5.12-7.851 11.947-7.851 20.139zM748.203 426.837c0 7.851 2.731 14.677 8.192 20.821 5.803 5.803 12.288 8.533 19.456 8.533h68.949c7.851 0 14.677-3.072 20.48-8.875s8.875-12.629 8.875-20.48c0-7.851-3.072-14.677-8.875-20.48s-12.629-8.533-20.48-8.533h-68.949c-7.851 0-14.677 2.731-19.797 8.533s-7.851 12.288-7.851 20.48z" />
<glyph unicode="&#xe93b;" glyph-name="day-lightning" d="M53.248 383.147c0-45.397 15.701-84.309 47.445-117.077s70.315-50.176 116.053-52.224c3.755 0 5.803 2.048 5.803 5.803v46.763c0 4.096-2.048 6.144-5.803 6.144-29.696 2.389-54.613 13.995-74.752 35.499-20.139 21.163-30.379 46.421-30.379 75.435 0 28.672 9.557 53.589 29.013 74.752s43.008 33.109 71.68 35.499l17.749 2.731c4.437 0 6.827 2.048 6.827 5.803l2.048 17.408c3.755 36.864 19.115 67.925 46.763 92.501 27.648 24.917 60.075 37.205 97.621 37.205 37.205 0 69.632-12.288 97.28-37.205 27.648-24.576 43.349-55.637 47.445-92.843l2.389-19.797c0-3.755 2.048-5.803 6.485-5.803h54.613c31.061 0 57.344-10.923 79.189-32.427s32.768-47.445 32.768-77.824c0-29.013-10.24-54.272-30.379-75.435s-45.056-33.109-74.752-35.499c-4.437 0-6.827-2.048-6.827-6.144v-46.763c0-3.755 2.389-5.803 6.827-5.803 45.397 1.365 83.968 18.773 115.371 51.541s47.104 72.021 47.104 117.76c0 23.211-5.461 46.763-16.043 70.656 26.624 32.085 40.277 69.291 40.277 111.616 0 24.235-4.779 47.445-14.336 69.632s-22.187 40.96-38.229 57.003-35.157 28.672-57.003 38.229c-22.187 9.216-45.056 13.995-69.291 13.995-52.565 0-96.939-19.797-132.437-59.051-29.355 13.995-59.392 21.163-90.453 21.163-48.469 0-91.136-14.677-128.341-44.373s-61.099-67.925-71.68-115.029c-37.547-8.875-68.608-28.331-93.184-59.051s-36.864-65.536-36.864-104.789zM309.248-1.536h10.24l181.589 267.947c1.365 1.365 1.707 3.072 0.683 4.779s-2.389 2.389-4.779 2.389h-74.411l78.507 143.701c2.389 4.779 1.024 7.509-4.779 7.509h-100.352c-2.731 0-5.12-1.707-7.509-4.779l-73.728-195.243c-0.683-4.779 0.683-7.168 4.779-7.168h74.069l-84.309-219.136zM339.285 803.328c0-8.533 2.731-15.701 8.192-21.163l22.528-22.187c14.336-10.923 27.989-10.923 41.301 0 5.461 6.144 8.192 13.312 8.192 21.845 0 7.851-2.731 14.677-8.192 20.139l-21.845 22.187c-6.485 5.803-13.312 8.533-21.163 8.533s-14.677-2.731-20.48-8.533c-5.803-5.803-8.533-12.971-8.533-20.821zM521.557 652.117c23.211 23.211 51.541 34.816 84.651 34.816 33.451 0 61.781-11.947 84.992-35.499 23.552-23.552 35.157-52.224 35.157-86.016 0-20.821-5.803-41.301-17.408-61.781-33.451 32.085-72.704 48.128-118.101 48.128h-10.581c-8.875 38.912-28.672 72.363-58.709 100.352zM576.853 832.683c0-8.533 2.731-15.701 8.192-21.163s12.288-8.192 20.821-8.192c8.192 0 14.677 2.731 20.139 8.192s7.851 12.629 7.851 21.163v69.632c0 8.192-2.731 14.677-7.851 20.139-5.461 5.461-11.947 7.851-20.139 7.851s-15.019-2.731-20.48-7.851-8.533-11.947-8.533-20.139v-69.632zM765.269 753.493c0-7.851 3.072-14.677 9.216-20.48s12.629-8.533 18.773-8.533c5.461 0 12.629 2.731 21.163 8.533l49.152 48.811c5.803 6.144 8.533 13.312 8.533 21.504s-2.731 15.36-8.533 20.821c-5.803 5.461-12.629 8.192-20.48 8.192-7.509 0-13.995-2.731-19.797-8.533l-48.811-48.811c-6.144-6.485-9.216-13.653-9.216-21.504zM792.917 350.037c0-7.851 2.731-14.677 8.192-20.821l22.187-22.528c5.461-5.461 12.288-8.192 19.797-8.192 8.192 0 15.019 2.731 20.48 8.533 5.803 5.803 8.533 12.971 8.533 21.504 0 7.851-2.731 14.336-8.533 19.456l-21.163 22.528c-6.485 5.461-13.312 7.851-21.163 7.851s-14.677-2.731-20.139-8.192c-5.461-5.461-8.192-12.288-8.192-20.139zM842.411 565.419c0-7.509 3.072-13.995 8.875-19.456 5.803-5.803 12.629-8.533 20.48-8.533h69.632c8.192 0 15.019 2.731 20.821 8.192s8.533 11.947 8.533 20.139c0 8.192-3.072 15.019-8.875 20.821s-12.629 8.533-20.48 8.533h-69.632c-7.851 0-14.677-2.731-20.48-8.533-5.803-6.144-8.875-12.971-8.875-21.163z" />
<glyph unicode="&#xe93c;" glyph-name="day-light-wind" d="M79.189 453.12c0-8.192 3.072-15.019 8.875-20.48 5.461-5.803 12.288-8.533 20.48-8.533h321.536c7.851 0 14.677 2.731 20.139 8.533s8.192 12.629 8.192 20.48c0 7.851-2.731 14.677-7.851 20.139-5.461 5.461-11.947 8.192-20.139 8.192h-321.877c-8.192 0-15.019-2.731-20.821-8.192s-8.533-12.288-8.533-20.139zM90.453 243.2c0-8.192 2.731-15.019 8.533-20.48 5.461-5.803 12.288-8.533 20.48-8.533h321.877c8.192 0 15.019 2.731 20.821 8.533s8.533 12.629 8.533 20.48-2.731 14.677-8.533 20.139-12.629 8.192-20.821 8.192h-321.536c-8.192 0-15.019-2.731-20.48-8.192-5.803-5.461-8.875-12.288-8.875-20.139zM137.216 349.013c0-8.192 2.731-14.677 8.533-20.139s12.971-7.851 21.504-7.851h320.853c8.192 0 14.677 2.731 20.139 7.851 5.461 5.461 7.851 11.947 7.851 20.139 0 8.533-2.731 15.36-7.851 20.821-5.461 5.461-11.947 8.192-20.139 8.192h-320.853c-8.533 0-15.701-2.731-21.504-8.192-5.461-5.461-8.533-12.288-8.533-20.821zM220.16 565.76c0 8.192 3.072 15.019 8.875 21.163 5.803 5.461 12.971 8.192 20.48 8.192h69.291c7.851 0 14.336-2.731 19.797-8.533s7.851-12.629 7.851-20.821c0-8.192-2.731-15.019-7.851-20.48-5.461-5.803-11.947-8.533-19.797-8.533h-69.291c-8.192 0-15.019 2.731-20.821 8.533s-8.533 12.629-8.533 20.48zM317.781 801.963c0 7.509 2.731 14.677 8.192 20.821 6.485 5.461 13.653 8.192 21.504 8.192 7.509 0 14.336-2.731 20.139-8.192l48.469-50.176c5.461-5.12 8.192-11.947 8.192-20.139s-2.731-15.019-8.192-20.48c-5.461-5.461-12.288-8.192-20.48-8.192s-15.019 2.731-20.139 8.192l-49.493 48.811c-5.461 6.144-8.192 12.971-8.192 21.163zM404.821 569.856v2.389c0.683 31.061 9.216 59.733 25.259 86.357 16.043 26.283 37.888 47.104 64.853 62.464s56.32 22.869 87.723 22.869c23.893 0 46.763-4.779 68.949-14.336 21.845-9.557 40.96-22.187 56.661-38.229 16.043-16.043 28.672-34.816 37.888-56.661s13.995-45.056 13.995-68.949c0-32.085-7.851-61.44-23.552-88.747s-37.205-48.811-64.171-64.512c-26.965-16.043-56.661-23.893-88.747-24.235h-6.827c-2.389 0-4.437 0.683-6.144 2.389s-2.731 3.755-2.731 6.144v41.643c0 4.437 2.389 6.827 7.509 6.827h8.192c32.768 0.341 61.099 11.947 84.309 35.84 23.211 23.552 35.157 51.883 35.157 84.992 0 32.768-11.947 60.757-35.499 84.309-23.552 23.211-51.883 34.816-85.333 34.816-32.085 0-60.075-10.923-83.285-33.451-23.211-22.187-35.499-49.152-36.864-80.896 0-2.048-0.683-3.755-2.389-5.803s-4.437-3.072-8.533-3.072h-38.912c-5.12-0.341-7.509 2.389-7.509 7.851zM553.984 232.619v67.925c0 8.192 2.731 15.019 8.192 20.48s12.288 8.192 20.48 8.192c8.192 0 15.36-2.731 20.821-8.192s8.192-12.288 8.192-20.48v-67.925c0-8.192-2.731-15.36-8.533-21.163s-12.629-8.533-20.48-8.533c-8.192 0-15.019 2.731-20.48 8.533s-8.192 12.629-8.192 21.163zM553.984 829.269v69.973c0 8.192 2.731 15.019 8.533 20.48s12.288 8.533 20.48 8.533c7.851 0 14.677-2.731 20.48-8.533s8.533-12.629 8.533-20.48v-69.632c0-7.851-2.731-14.336-8.533-19.797-5.803-5.12-12.629-7.851-20.48-7.851-8.192 0-15.019 2.731-20.48 7.851-5.803 5.12-8.533 11.605-8.533 19.456zM742.059 379.392c0 7.851 2.389 14.336 7.851 19.115 5.12 5.461 11.605 7.851 19.456 7.851 8.192 0 15.019-2.731 20.48-7.851l49.493-48.469c5.461-5.803 8.192-12.971 8.192-20.821s-2.731-14.677-8.192-20.139c-13.653-10.581-27.307-10.581-40.96 0l-48.469 48.811c-5.12 5.461-7.851 12.971-7.851 21.504zM742.059 752.469c0 8.533 2.389 15.36 7.851 20.139l48.469 50.176c6.144 5.461 12.629 8.192 20.139 8.192 8.192 0 15.019-2.731 20.48-8.533 5.803-5.803 8.533-12.629 8.533-20.48 0-8.533-2.731-15.701-8.192-21.163l-49.493-48.811c-6.144-5.461-12.971-8.192-20.48-8.192-7.851 0-13.995 2.731-19.456 8.192s-7.851 12.288-7.851 20.48zM819.2 565.76c0 7.851 2.731 15.019 8.533 21.163 5.461 5.461 11.947 8.192 19.115 8.192h69.291c7.851 0 14.677-3.072 20.821-8.875 5.803-5.803 8.875-12.629 8.875-20.48s-3.072-14.677-8.875-20.48c-6.144-5.803-12.971-8.533-20.821-8.533h-69.291c-7.851 0-14.336 2.731-19.797 8.533-5.12 5.461-7.851 12.288-7.851 20.48z" />
<glyph unicode="&#xe93d;" glyph-name="day-rain" d="M51.541 383.488c0-45.397 15.701-84.651 47.445-117.419s70.315-50.176 116.395-52.224c3.755 0 5.803 2.048 5.803 5.803v45.739c0 3.755-2.048 5.803-5.803 5.803-29.355 1.365-54.272 13.312-74.752 35.157s-30.72 47.787-30.72 77.141c0 27.989 9.557 52.565 29.013 73.728s43.349 33.109 71.68 36.523l18.091 1.707c4.437 0 6.827 2.048 6.827 5.803l2.389 18.432c3.755 36.864 19.115 67.925 46.763 92.843s60.075 37.547 97.28 37.547c37.205 0 69.632-12.629 97.621-37.547s43.691-55.979 47.787-92.843l2.389-19.456c0-4.096 2.048-6.485 5.803-6.485h55.296c30.379 0 56.32-10.923 78.507-32.768s33.109-47.445 33.109-77.483c0-29.696-10.24-55.296-30.72-77.141s-45.397-33.451-74.411-35.157c-4.096 0-6.485-2.048-6.485-5.803v-45.739c0-3.755 2.048-5.803 6.485-5.803 45.397 1.365 83.968 18.773 115.712 51.541 31.744 33.109 47.445 72.363 47.445 117.76 0 24.576-4.779 47.445-14.336 68.608 26.624 33.109 39.936 70.656 39.936 112.981 0 32.427-8.192 62.464-24.235 90.112s-37.888 49.493-65.536 65.536-57.344 23.893-89.429 23.893c-53.248 0-97.28-19.797-132.437-59.392-27.989 15.019-58.709 22.528-92.501 22.528-48.128 0-91.136-15.019-128.341-45.056s-61.099-68.267-71.68-114.688c-37.888-8.875-68.949-28.672-93.525-59.392s-36.864-65.536-36.864-104.789zM235.861 149.333c0-5.803 1.707-11.264 5.461-16.725s9.216-9.216 16.725-11.264c3.755-0.683 6.827-1.365 9.216-1.365 13.312 0 22.187 7.168 26.283 21.845l53.931 200.704c2.389 8.192 1.365 15.701-2.731 22.869s-10.24 11.264-18.091 12.971c-7.509 2.389-14.677 1.707-21.504-2.389-6.827-3.755-11.605-9.557-13.995-17.408l-53.931-201.728c-0.683-4.437-1.365-6.827-1.365-7.509zM324.949 44.203c0-6.485 1.707-12.288 5.12-17.749s9.216-8.875 17.749-10.24c3.755-0.683 6.827-1.365 8.875-1.365 5.461 0 10.581 2.048 15.36 5.803 4.779 4.096 7.851 9.557 9.216 16.384l81.92 304.811c2.048 7.851 1.365 15.36-2.389 21.845s-9.557 11.264-17.067 13.653c-7.851 2.389-15.36 1.707-22.187-2.389-6.827-3.755-11.605-9.557-13.653-17.408l-81.92-304.811c-0.683-5.12-1.024-8.192-1.024-8.533zM339.285 802.987c0-8.192 2.731-15.019 8.533-20.821l22.187-22.528c6.485-5.12 13.653-7.509 21.163-7.509 7.168 0 13.995 2.731 19.797 7.851 5.803 5.461 8.875 11.947 8.875 20.139s-2.731 15.701-8.192 21.845l-21.845 22.187c-6.144 5.803-12.971 8.533-20.48 8.533-8.192 0-15.36-3.072-21.163-8.875s-8.875-12.971-8.875-20.821zM466.603 148.651c0-5.461 1.707-10.923 5.12-16.043s8.875-8.875 15.701-10.923c3.755-0.683 6.827-1.365 8.533-1.365 5.803 0 11.605 1.707 16.725 5.12s8.533 8.875 10.24 16.725l53.931 200.704c2.048 7.851 1.365 15.36-2.389 21.845-3.755 6.827-9.557 11.264-17.067 13.653-8.192 2.389-15.36 1.707-22.187-2.389-6.827-3.755-11.264-9.557-13.312-17.408l-53.931-201.728c-0.683-5.12-1.365-7.851-1.365-8.192zM522.24 651.776c24.235 22.869 52.224 34.133 84.651 34.133 33.451 0 62.123-11.947 85.333-35.499 23.552-23.552 35.157-52.224 35.157-86.016 0-21.163-5.803-42.325-17.749-63.147-33.109 33.109-72.704 49.493-119.125 49.493h-11.264c-9.216 40.277-28.331 73.728-57.003 101.035zM577.536 830.976c0-7.851 2.731-14.677 8.533-20.139s12.629-8.192 20.821-8.192c7.851 0 14.677 2.731 20.139 7.851 5.461 5.461 8.192 11.947 8.192 20.139v70.315c0 8.875-2.731 16.043-7.851 21.504-5.461 5.461-11.947 8.192-20.139 8.192-8.533 0-15.701-2.731-21.163-8.533s-8.192-12.629-8.192-21.163v-69.973zM766.293 753.152c0-8.192 3.072-15.019 9.216-20.139 4.779-5.461 10.923-8.192 18.773-8.875s15.019 2.389 21.163 8.875l49.152 48.811c6.144 5.803 8.875 12.971 8.875 21.504 0 8.192-2.731 15.36-8.533 20.821s-12.629 8.192-20.821 8.192c-7.168 0-13.653-2.731-19.797-8.533l-48.811-49.152c-6.144-5.803-9.216-12.971-9.216-21.504zM793.941 348.672c0-8.192 2.731-15.36 8.192-21.504l22.187-21.504c6.144-4.779 12.971-7.168 20.48-7.168l0.683-0.683c7.851 0 14.336 2.731 19.797 8.192s8.192 12.629 8.192 20.821c0 8.192-3.072 14.677-8.875 19.797l-21.163 22.528c-6.144 5.461-13.312 8.192-21.163 8.192s-14.677-2.731-20.139-8.533-8.192-11.947-8.192-20.139zM843.776 564.736c0-8.192 3.072-14.677 8.875-20.139 6.144-6.144 12.971-8.875 21.163-8.875h69.291c8.192 0 15.019 2.731 20.821 8.533s8.533 12.629 8.533 20.48c0 8.192-2.731 15.019-8.533 20.821s-12.629 8.875-20.821 8.875h-69.291c-8.192 0-15.019-3.072-21.163-8.875s-8.875-12.629-8.875-20.821z" />
<glyph unicode="&#xe93e;" glyph-name="day-rain-mix" d="M50.517 381.44c0-45.056 15.701-83.968 46.763-116.053s69.632-49.493 115.371-51.541c4.096 0 6.144 2.048 6.144 5.803v45.397c0 4.096-2.048 6.144-6.144 6.144-29.355 1.365-53.931 12.971-74.069 34.133s-30.037 46.763-30.037 76.459c0 28.672 9.557 53.931 28.672 74.752 19.115 21.163 43.008 32.768 71.68 35.157l18.091 2.731c3.755 0 5.461 1.707 5.461 4.779l2.731 18.773c4.096 37.205 20.139 68.267 47.104 92.843s59.051 36.523 96.597 36.523 69.973-12.288 97.621-36.864c27.989-24.576 43.691-55.296 47.104-91.819l2.389-19.797c0.683-3.755 3.413-5.803 7.509-5.803h54.613c30.379 0 56.32-10.923 78.165-32.768s32.768-48.128 32.768-78.848c0-29.696-9.899-54.955-30.037-76.459s-44.715-32.427-74.069-34.133c-4.437 0-6.827-2.048-6.827-6.144v-45.397c0-3.755 2.389-5.803 6.827-5.803 45.397 1.365 83.627 18.432 115.029 50.859 31.061 32.427 46.763 71.339 46.763 116.736 0 23.211-4.437 45.739-12.971 68.608 26.624 32.768 39.595 70.997 39.595 114.347 0 24.235-4.779 47.104-13.995 69.291s-22.187 40.96-38.229 57.003-35.157 28.672-57.003 38.229-45.397 14.336-69.632 14.336c-52.565 0-96.597-19.797-131.755-59.392-30.379 15.019-61.781 22.528-93.525 22.528-48.128 0-90.795-15.019-127.659-44.715s-60.416-68.267-70.997-115.371c-38.229-8.875-69.632-28.331-93.867-59.051s-36.181-65.877-36.181-105.472zM233.131 141.483c0-5.803 1.707-11.605 5.461-17.408s9.216-9.557 16.043-11.947c7.851-2.389 15.36-2.048 21.845 1.365 6.827 3.072 11.264 9.557 13.653 19.115l4.779 20.821c1.707 7.851 0.683 15.019-3.413 21.504-4.096 6.827-9.899 11.264-17.749 13.653s-15.019 1.365-21.845-2.731-10.923-9.899-12.971-17.749l-4.779-20.139c-0.683-2.048-1.024-4.096-1.024-6.485zM259.413 240.469c0-7.509 2.731-13.995 8.192-19.456 5.461-6.144 11.947-8.875 19.115-8.875 8.192 0 15.019 2.731 20.48 8.192 5.803 5.461 8.533 11.947 8.533 20.139 0 7.851-2.731 14.677-8.533 20.139s-12.629 8.192-20.48 8.192c-7.851 0-14.336-2.731-19.797-7.851s-7.509-12.629-7.509-20.48zM280.235 317.952c-0.341-5.461 1.024-10.581 4.437-15.36 3.413-5.12 8.875-8.533 16.384-10.923 7.168-2.048 13.995-1.365 21.163 2.389s11.947 9.557 14.336 17.408l9.216 30.72c2.389 8.192 1.707 15.701-2.389 22.187s-10.24 10.923-18.432 13.312c-7.509 2.389-14.677 1.707-21.504-2.389-6.827-3.755-11.605-9.557-13.995-17.067l-8.192-31.403c-0.683-5.461-1.024-8.533-1.024-8.875zM319.488 34.987c0-5.803 1.707-11.264 5.461-16.725s9.216-9.216 16.725-11.264c3.072-0.683 5.803-1.024 8.192-1.024 14.677 0 23.893 6.827 27.307 20.821l4.437 20.139c2.048 8.875 1.024 16.384-2.731 23.211s-9.899 10.923-17.749 12.629c-7.168 2.389-14.336 1.707-21.504-2.389s-11.605-9.899-13.995-17.408l-4.779-20.48c-1.024-3.755-1.365-6.485-1.365-7.509zM338.603 800.939c0-8.192 2.731-15.019 8.192-20.48l22.528-21.845c4.779-5.461 10.923-8.192 18.432-8.875s14.677 2.389 21.163 8.875c5.461 5.461 8.192 12.288 8.192 20.139 0 8.192-2.731 15.019-8.192 20.48l-21.504 22.187c-5.12 5.461-11.947 8.192-19.797 8.875-7.851 0-14.677-2.731-20.48-8.533-5.461-5.803-8.533-12.629-8.533-20.821zM346.453 133.973c0-7.851 2.731-14.336 8.192-19.797s12.288-8.192 19.797-8.192c8.192 0 14.677 2.731 20.139 7.851 5.461 5.461 7.851 11.947 7.851 20.139 0 7.851-2.731 14.336-7.851 19.797-5.461 5.461-11.947 7.851-20.139 7.851s-14.677-2.731-20.139-7.851-7.851-11.947-7.851-19.797zM367.616 211.456c-0.341-5.12 1.024-10.581 4.779-16.043 3.413-5.461 8.533-8.875 15.36-10.24 7.851-2.048 15.019-1.365 21.845 2.048s11.264 9.899 13.995 19.115l8.875 30.72c2.389 7.509 1.707 14.677-2.389 21.504s-9.899 11.264-18.091 13.653c-7.509 2.389-14.677 1.365-21.845-2.731s-11.605-10.24-13.995-18.091l-7.509-30.72c-0.683-2.731-1.024-5.803-1.024-9.216zM461.824 138.069c0-5.803 1.707-11.264 5.12-16.384s8.533-8.875 15.701-10.923c1.024 0 2.731-0.341 4.779-0.683s3.755-0.683 4.779-0.683c13.995 0 22.528 7.509 25.941 22.528l4.779 20.48c2.389 7.168 1.707 14.336-2.389 21.504s-9.899 11.605-17.408 13.995c-8.533 2.048-16.384 1.365-23.211-2.731s-11.605-9.899-13.995-18.091l-3.072-20.139c0-0.341 0-1.707-0.341-3.755-0.341-2.389-0.683-3.755-0.683-5.12zM487.083 239.104c0-7.851 2.731-14.336 8.192-19.456 5.12-5.461 11.605-8.192 19.797-8.192s14.677 2.731 20.139 7.851c5.461 5.461 7.851 11.947 7.851 19.797 0 8.192-2.731 14.677-7.851 20.139-5.461 5.461-11.947 7.851-20.139 7.851s-14.677-2.731-20.139-7.851-7.851-11.947-7.851-20.139zM507.904 317.952c0-5.803 1.707-11.264 5.461-16.384s9.216-8.875 16.725-10.923c0.683 0 2.048-0.341 4.096-0.683s3.755-0.683 4.779-0.683c3.755 0 7.851 1.024 12.629 3.072 7.168 3.755 11.605 9.557 13.653 17.749l8.192 30.72c2.048 7.851 1.365 15.019-2.389 21.504s-9.557 11.264-17.067 13.653c-7.851 2.389-15.36 1.707-21.845-2.048-6.827-3.755-11.264-9.216-13.653-17.408l-9.557-31.061c0-0.683 0-1.707-0.341-3.755-0.341-1.024-0.683-2.389-0.683-3.755zM519.851 649.728c22.528 22.528 50.517 33.792 84.309 33.792s62.464-11.605 86.016-34.816 35.499-51.2 35.499-84.651c0-22.528-6.144-44.032-18.091-64.171-33.451 33.451-73.387 50.176-119.467 50.176h-10.581c-9.557 37.547-29.013 70.656-57.685 99.669zM576.171 829.269c0-7.851 2.731-14.336 7.851-19.797 5.12-5.12 11.947-7.851 20.139-7.851s15.36 2.731 21.163 7.851c5.803 5.12 8.533 11.947 8.533 19.797v70.656c0 7.851-3.072 14.677-8.875 20.48s-12.971 8.533-20.821 8.533c-7.851 0-14.677-2.731-19.797-8.533-5.461-5.803-7.851-12.629-7.851-20.48v-70.656zM764.587 752.128c0-8.533 2.731-15.36 7.851-20.48 12.288-12.288 25.941-12.288 41.301 0l48.811 48.811c5.803 5.803 8.533 12.971 8.533 21.504 0 8.192-2.731 15.019-8.533 20.48-5.803 5.803-12.629 8.533-20.48 8.533s-14.677-2.731-20.821-8.192l-48.811-50.517c-5.12-5.12-7.851-11.605-7.851-20.139zM791.211 347.648c0-7.851 3.072-14.677 9.216-20.139l20.821-21.504c6.827-5.461 13.653-8.192 20.821-8.192 6.827 0 13.653 2.731 20.48 8.192 5.803 5.461 8.533 11.947 8.533 20.139 0 7.851-2.731 14.677-8.533 21.163l-22.187 20.821c-5.12 5.803-11.605 8.533-19.456 8.533s-14.677-2.731-20.48-8.533c-6.144-5.803-9.216-12.629-9.216-20.48zM841.728 564.053c0-8.192 3.072-14.677 8.875-20.139 6.144-6.144 13.312-9.216 21.163-9.216h69.291c7.851 0 14.677 2.731 20.139 8.533s8.192 12.629 8.192 20.821c0 8.192-2.731 15.019-8.192 20.48-5.461 5.803-11.947 8.533-20.139 8.533h-69.291c-8.192 0-15.019-2.731-21.163-8.533s-8.875-12.629-8.875-20.48z" />
<glyph unicode="&#xe93f;" glyph-name="day-rain-wind" d="M50.517 382.805c0-38.229 11.264-72.704 34.133-102.741s52.224-50.176 88.064-60.416c3.072-0.341 5.803 0.341 8.192 2.731l39.936 48.128c-30.379 0-56.661 10.923-78.507 33.109s-32.768 48.469-32.768 79.531c0 28.331 9.557 52.907 29.013 74.069 19.456 20.821 43.349 33.109 72.021 36.523l16.725 1.024c4.437 0 6.827 2.048 6.827 6.485l2.389 18.432c3.755 36.864 19.456 67.925 47.104 92.843s60.416 37.547 97.621 37.547c37.547 0 70.315-12.629 98.304-37.547s43.691-55.979 47.445-92.843l2.389-20.139c1.365-3.755 4.096-5.803 7.509-5.803h55.979c30.037 0 55.979-10.923 77.824-32.427s32.768-47.787 32.768-77.824c0-28.672-9.557-53.931-29.013-75.435s-42.667-33.451-70.656-35.84c-16.725-2.048-26.965-5.12-30.72-9.557l-74.752-96.256c-4.779-6.485-6.485-13.653-5.461-21.504s4.437-14.336 10.581-19.115c5.12-5.803 11.947-8.192 20.48-7.168s15.36 5.12 20.48 12.288l65.536 83.968c27.989 2.731 53.589 11.947 76.8 27.989 23.211 15.701 41.301 36.181 54.955 61.099 13.312 24.917 20.139 51.541 20.139 79.872 0 24.576-4.779 47.445-14.336 68.608 26.965 32.768 40.277 70.656 40.277 113.664 0 24.235-4.779 47.104-14.336 69.291s-22.528 41.301-38.571 57.344c-16.043 16.043-35.157 28.672-57.344 38.229s-45.397 14.336-69.632 14.336c-51.2 0-95.232-19.797-132.437-59.392-26.965 15.019-58.027 22.528-92.843 22.528-48.128 0-90.795-15.019-128-45.056s-60.757-68.267-70.656-115.029c-38.571-8.875-70.315-28.331-95.232-59.051s-38.229-67.243-38.229-106.496zM183.637 101.547c2.389-7.509 7.851-12.971 15.701-16.384 7.509-3.413 15.019-3.413 22.869-0.341s12.971 8.533 15.701 16.043c3.072 7.168 3.413 13.995 0 21.163-3.072 7.168-8.192 12.288-15.36 15.701-7.509 3.413-15.019 3.755-22.528 0.683s-12.629-8.192-15.36-15.701c-3.072-8.533-3.413-15.701-1.024-21.163zM245.419 195.072v-3.755c0.683-7.509 4.096-13.653 10.24-18.773s12.971-7.509 21.504-6.827c8.192 0.683 14.677 4.096 19.456 9.899l74.411 96.256c4.779 6.144 7.168 13.312 6.485 21.504s-4.096 14.677-9.899 19.456c-6.144 5.12-13.312 7.168-21.504 6.485s-15.019-4.437-20.48-10.581l-73.387-95.573c-4.779-5.461-6.827-11.605-6.827-18.091zM262.827 29.184c0-2.048 0.683-5.461 2.048-10.24 3.072-7.509 8.192-12.629 15.701-15.701 3.755-1.365 7.851-2.389 12.288-2.389 3.072 0 6.827 0.683 10.581 1.707 7.168 2.731 12.288 7.851 15.019 15.019 3.413 7.509 3.755 15.019 0.683 22.869-2.731 7.851-7.851 12.971-15.36 15.701-7.509 3.413-15.019 3.413-22.869 0.341s-12.971-8.192-15.36-15.36c-1.707-3.755-2.731-7.851-2.731-11.947zM319.829 110.080v-3.413c0.683-7.851 4.437-14.336 11.264-19.797 5.12-5.461 11.947-7.851 20.48-6.827s15.36 4.779 20.48 11.605l141.312 178.517c4.779 6.827 6.485 13.995 5.803 21.845s-4.437 14.336-10.581 20.139c-6.144 4.779-13.312 6.827-21.163 5.803s-14.336-4.437-19.115-10.581l-141.995-179.541c-4.437-5.12-6.485-11.264-6.485-17.749zM339.627 802.645c0-8.192 3.072-15.019 9.216-20.139l20.821-22.528c5.461-5.461 11.605-8.192 18.432-8.875 7.168-1.024 13.995 1.365 20.821 7.509s10.24 13.312 10.24 21.845c0 7.509-2.731 14.677-8.192 20.48l-21.845 22.187c-5.12 5.461-11.605 8.192-19.797 8.192s-15.36-2.731-21.163-8.192c-5.461-5.803-8.533-12.629-8.533-20.48zM440.32 71.168c0-4.096 0.683-7.509 2.389-10.581 3.072-7.509 8.192-12.629 15.36-15.701 3.755-1.707 7.509-2.731 11.947-2.731 2.048 0 5.461 0.683 10.24 2.048 7.509 3.072 12.971 8.192 15.701 15.701 3.413 7.509 3.755 15.019 0.683 22.528-2.731 7.509-7.851 12.629-15.36 15.36-7.509 3.413-15.019 3.755-22.869 0.683s-12.971-8.192-15.701-15.36c-1.707-3.755-2.389-7.851-2.389-11.947zM522.24 651.776c24.235 21.845 52.224 33.109 84.651 33.109 33.792 0 62.464-11.605 86.357-35.157s35.84-51.541 35.84-84.992c0-22.528-5.803-43.691-17.749-63.488-33.109 33.109-72.704 49.493-118.784 49.493h-11.605c-9.216 39.595-28.672 73.045-58.709 101.035zM577.877 831.317c0-7.851 2.731-14.677 8.533-20.139s12.629-8.192 20.48-8.192c8.192 0 15.36 2.731 21.163 8.192s8.533 12.288 8.533 20.139v70.656c0 7.851-3.072 14.677-8.875 20.48s-12.971 8.533-20.821 8.533c-7.851 0-14.677-2.731-20.48-8.533s-8.533-12.629-8.533-20.48v-70.656zM768 753.493c0-8.192 2.389-15.019 7.509-20.48 6.144-5.803 12.971-8.533 20.821-8.875 7.851 0 14.336 2.731 19.456 8.875l51.2 49.493c5.461 5.461 8.192 12.629 8.192 20.821s-3.072 15.019-8.875 20.821c-5.803 5.803-12.629 8.875-20.48 8.875-7.509 0-14.336-2.731-20.48-8.533l-49.493-50.176c-5.12-5.803-7.851-12.629-7.851-20.821zM794.624 347.307c0-8.192 2.731-15.019 8.192-20.48l22.528-21.504c5.461-5.461 11.605-8.533 18.432-9.216h2.048c6.144 0 12.971 3.072 21.163 9.216 5.461 5.461 8.192 12.288 8.192 19.797 0 8.192-2.731 15.36-8.192 21.504l-22.528 21.163c-5.461 5.803-12.288 8.533-20.139 8.533-8.192 0-15.36-2.731-21.163-8.533-5.461-5.461-8.533-12.629-8.533-20.48zM845.824 564.736c0-8.192 2.731-15.019 8.192-20.48 5.461-6.144 12.288-9.216 20.48-9.216h69.632c8.192 0 15.019 3.072 20.821 8.875s8.533 12.971 8.533 20.821c0 7.851-2.731 14.677-8.533 20.139s-12.629 8.192-20.821 8.192h-69.632c-8.192 0-15.019-2.731-20.48-8.192s-8.192-12.288-8.192-20.139z" />
<glyph unicode="&#xe940;" glyph-name="day-showers" d="M53.248 383.829c0-45.397 15.701-84.309 47.445-117.077s70.315-49.835 116.053-52.224c3.755 0 5.803 2.048 5.803 5.803v45.739c0 4.096-2.048 6.144-5.803 6.144-29.013 1.365-53.589 12.971-74.069 34.816s-30.379 47.445-30.379 76.8c0 28.672 9.557 53.248 28.672 74.069s43.008 32.768 71.68 36.181l17.067 1.365c4.437 0 6.827 2.048 6.827 6.144l2.048 18.091c3.755 36.864 19.115 67.925 46.763 92.501 27.648 24.917 60.075 37.205 97.621 37.205 37.205 0 69.973-12.288 97.621-37.205s43.349-55.637 46.763-92.501l2.389-19.456c0-4.096 2.048-6.144 6.144-6.144h57.003c30.037 0 55.637-10.923 77.483-32.768s32.768-47.445 32.768-77.483c0-29.013-10.24-54.272-30.72-75.776s-45.056-33.451-73.728-35.84c-3.755 0-5.803-2.048-5.803-6.144v-45.739c0-3.755 2.048-5.803 5.803-5.803 30.037 0.683 57.003 8.875 81.92 24.576s44.373 35.84 58.368 61.44c14.336 25.6 21.163 53.248 21.163 83.285 0 24.235-4.779 46.763-13.995 66.901 25.941 32.085 38.571 69.291 38.571 111.957 0 24.235-4.779 47.445-13.995 69.632s-22.187 40.96-38.229 57.003c-15.701 16.043-34.816 28.672-56.661 37.888-22.187 9.557-45.397 13.995-69.632 13.995-51.541 0-94.891-18.773-130.048-56.661-26.965 14.677-58.027 21.845-93.184 21.845-48.128 0-90.795-15.019-128-44.715s-60.416-67.925-70.656-114.347c-38.229-8.875-69.973-28.331-94.549-58.709-24.235-30.379-36.523-65.536-36.523-104.789zM237.909 155.136c0-6.144 1.707-12.288 5.461-18.091 3.755-6.144 8.875-9.899 15.36-12.288s13.653-1.707 20.821 2.048c7.509 3.755 12.288 9.899 15.019 18.773l8.533 35.84c2.389 7.168 1.707 13.995-2.389 21.163s-9.899 11.947-17.408 14.336c-8.533 2.048-16.043 1.024-22.869-2.731s-10.923-10.24-12.629-18.091l-9.557-33.792c0-1.707-0.341-4.096-0.341-7.168zM282.624 316.245c0-12.971 7.168-21.845 21.845-26.965 7.509-2.731 14.677-2.048 21.845 1.707s11.605 9.899 13.995 18.091l8.192 35.157c2.389 7.168 1.707 13.995-2.389 21.163-3.755 7.168-9.557 11.947-17.408 14.336-8.192 2.048-16.043 1.365-22.869-2.731s-10.923-9.899-12.629-17.749l-10.24-34.816c0-2.731-0.341-5.461-0.341-8.192zM324.267 46.933c0-5.461 2.048-11.264 5.803-17.067s9.557-9.899 16.725-12.288c0.341 0 1.365 0 3.413-0.341s3.755-0.341 5.12-0.341c4.779 0 8.875 0.683 12.629 2.389 6.485 2.731 11.264 9.216 13.995 19.797l9.216 33.792c2.389 7.851 1.707 15.36-2.389 22.187s-9.899 11.605-17.408 13.653c-7.851 2.389-15.36 1.707-22.187-2.389s-11.605-9.899-13.653-17.408l-9.557-34.816c-1.365-3.072-1.707-5.461-1.707-7.168zM339.968 800.256c0-8.533 2.731-15.701 8.533-21.163l22.528-22.187c11.605-11.605 24.917-11.605 39.936 0 5.461 5.803 8.192 12.971 8.192 20.821s-2.731 14.677-8.192 20.821l-21.504 22.528c-5.461 5.461-12.288 8.192-20.48 8.192-7.851 0-14.677-2.731-20.48-8.533-5.803-5.461-8.533-12.288-8.533-20.48zM370.347 210.432c0-5.803 1.707-11.605 5.461-17.408s8.875-9.557 16.043-11.947c7.851-2.389 15.019-1.707 21.845 1.707 6.485 3.413 11.264 9.899 13.653 19.115l8.192 34.475c2.389 7.851 1.707 15.36-2.048 22.187s-9.557 11.605-17.067 13.995c-8.533 2.389-16.384 1.365-23.211-2.731s-11.264-10.24-12.629-18.091l-9.557-35.157c-0.683-1.024-0.683-3.072-0.683-6.144zM465.237 151.723c0.683-12.971 7.851-22.187 21.504-28.331l8.533-1.365c5.461 0 10.923 1.707 16.043 5.461s8.875 9.216 10.923 17.067l9.899 34.475c2.048 8.192 1.024 15.701-3.072 22.528s-10.24 11.264-18.091 12.629c-7.168 2.389-13.995 1.707-21.163-2.389s-11.605-9.899-13.995-17.408l-9.216-34.816c-0.341-0.683-0.341-1.707-0.683-2.731s-0.341-2.048-0.683-2.731 0-1.707 0-2.389zM513.024 314.197c0-5.461 1.707-10.923 5.12-16.384s8.533-9.216 15.36-10.923l8.533-1.024c6.485 0 12.629 2.048 17.749 6.144s8.192 9.557 9.557 16.043l9.216 33.792c2.389 8.192 1.707 15.36-2.389 22.187-3.755 6.827-9.557 11.264-17.408 13.312-7.851 2.389-15.36 1.707-21.845-2.048-6.827-3.755-11.264-9.557-13.312-17.067l-10.24-36.181c0-2.731-0.341-5.461-0.341-7.851zM524.288 650.752c22.528 21.845 49.835 32.768 81.92 32.768 33.451 0 62.123-11.947 85.675-35.499s35.499-52.224 35.499-85.675c0-19.115-5.461-39.253-16.043-60.075-32.768 32.768-72.021 48.811-118.443 48.811h-11.605c-8.875 38.912-27.989 72.021-57.003 99.669zM576.853 829.269c0-8.533 2.731-15.36 8.192-20.821s12.288-8.192 20.821-8.192 15.36 2.731 20.821 8.192c5.461 5.461 8.192 12.288 8.192 20.821v68.949c0 8.533-2.731 15.701-8.192 21.163s-12.288 8.192-20.821 8.192-15.36-2.731-20.821-8.192c-5.461-5.461-8.192-12.629-8.192-21.163v-68.949zM766.293 751.104c0-8.533 2.731-15.36 7.851-20.821 7.168-5.803 13.995-8.533 21.163-8.533 6.485 0 12.971 2.731 20.139 8.533l48.811 48.811c5.461 6.144 8.192 13.312 8.192 21.504s-2.731 15.019-8.192 20.48c-5.461 5.461-12.288 8.192-20.139 8.192s-14.677-2.731-20.821-8.192l-49.152-48.811c-5.12-6.144-7.851-12.971-7.851-21.163zM793.259 347.307c0-7.851 3.072-15.019 8.875-21.504l21.163-21.845c7.168-7.168 13.995-10.581 21.163-10.581 6.485 0 13.312 3.413 19.797 10.581 6.144 6.144 9.216 13.312 8.875 20.821-0.341 7.851-3.072 14.677-8.875 20.48l-22.187 22.528c-5.461 5.461-11.947 8.192-19.456 8.192-8.192 0-15.019-2.731-20.821-8.533-5.461-5.461-8.533-12.288-8.533-20.139zM843.435 562.688c0-7.509 2.731-14.336 8.192-19.797s12.288-8.192 19.797-8.192h69.632c8.875 0 16.043 2.731 21.504 7.851 5.461 5.461 8.192 11.947 8.192 20.139 0 8.533-2.731 15.701-8.533 21.163s-12.629 8.192-21.163 8.192h-69.632c-7.851 0-14.677-2.731-20.139-8.533-5.12-5.803-7.851-12.971-7.851-20.821z" />
</font>
</defs>
</svg>
